<svg width="16" height="16" viewBox="0 0 16 16" fill="none" xmlns="http://www.w3.org/2000/svg">
<path d="M8.2175 0C3.8323 0 1.5002 2.81013 1.5002 5.87426C1.5002 7.29533 2.29423 9.06741 3.56529 9.62943C3.7583 9.71644 3.86331 9.67944 3.90631 9.50043C3.94431 9.36442 4.11132 8.70939 4.19232 8.40038C4.21732 8.30137 4.20432 8.21537 4.12432 8.12237C3.7023 7.63434 3.36728 6.7453 3.36728 5.91127C3.36728 3.77417 5.06636 1.69908 7.95749 1.69908C10.4576 1.69908 12.2067 3.32315 12.2067 5.64625C12.2067 8.27137 10.8176 10.0875 9.01254 10.0875C8.01349 10.0875 7.26946 9.30342 7.50547 8.33338C7.79048 7.17832 8.34951 5.93627 8.34951 5.10323C8.34951 4.3562 7.92749 3.73817 7.06545 3.73817C6.0484 3.73817 5.22337 4.74521 5.22337 6.09727C5.22337 6.95631 5.52738 7.53634 5.52738 7.53634C5.52738 7.53634 4.52133 11.6005 4.33433 12.3596C4.01831 13.6446 4.37733 15.7257 4.40833 15.9047C4.42733 16.0037 4.53834 16.0347 4.60034 15.9537C4.69934 15.8237 5.9154 14.0886 6.25641 12.8346C6.38042 12.3776 6.88944 10.5245 6.88944 10.5245C7.22446 11.1295 8.1915 11.6365 9.22155 11.6365C12.2857 11.6365 14.4998 8.9434 14.4998 5.60125C14.4888 2.39711 11.7467 0 8.2175 0Z" fill="black"/>
</svg>
