<svg width="14" height="14" viewBox="0 0 14 14" fill="none" xmlns="http://www.w3.org/2000/svg">
<path d="M8.6638 7.00001L13.6554 2.00842C13.7646 1.89917 13.8513 1.76947 13.9104 1.62672C13.9695 1.48398 14 1.33099 14 1.17649C14 1.02199 13.9695 0.868997 13.9104 0.726257C13.8513 0.583517 13.7646 0.45382 13.6553 0.344573C13.5461 0.235326 13.4164 0.148668 13.2736 0.0895457C13.1309 0.0304237 12.9779 -3.82568e-06 12.8234 3.60779e-10C12.6689 3.8264e-06 12.5159 0.030439 12.3732 0.0895681C12.2304 0.148697 12.1007 0.235362 11.9915 0.344615L6.99999 5.33612L2.00849 0.344615C1.89925 0.235362 1.76955 0.148697 1.62681 0.0895681C1.48407 0.030439 1.33108 3.82525e-06 1.17658 3.60779e-10C1.02207 -3.82453e-06 0.869084 0.0304237 0.72634 0.0895457C0.583597 0.148668 0.453897 0.235326 0.344644 0.344573C0.235391 0.45382 0.148726 0.583517 0.0895973 0.726257C0.0304682 0.868997 3.2995e-05 1.02199 2.91724e-05 1.17649C2.53498e-05 1.33099 0.0304534 1.48398 0.0895754 1.62672C0.148697 1.76947 0.235356 1.89917 0.344603 2.00842L5.33619 7.00001L0.344603 11.9915C0.235351 12.1008 0.148687 12.2305 0.0895597 12.3732C0.0304327 12.516 0 12.6689 0 12.8235C0 12.978 0.0304327 13.131 0.0895597 13.2737C0.148687 13.4164 0.235351 13.5461 0.344603 13.6554C0.565248 13.876 0.864508 14 1.17655 14C1.33105 14 1.48405 13.9696 1.62679 13.9104C1.76954 13.8513 1.89924 13.7647 2.00849 13.6554L6.99999 8.66381L11.9915 13.6554C12.2121 13.876 12.5114 14 12.8234 14C13.1355 14 13.4347 13.876 13.6554 13.6554C13.876 13.4348 14 13.1355 14 12.8235C14 12.5114 13.876 12.2122 13.6554 11.9915L8.6638 7.00001Z" fill="#F72D16"/>
</svg>
