<svg width="226" height="64" viewBox="0 0 226 64" fill="none" xmlns="http://www.w3.org/2000/svg">
<path d="M99.4433 42.3333C94.4997 42.7778 90.3985 43 87.1397 43C84.9672 43 83.3711 42.4889 82.3513 41.4667C81.3315 40.4444 80.8217 38.8444 80.8217 36.6667V26C80.8217 23.6667 81.3426 21.9778 82.3845 20.9333C83.4486 19.8667 85.1445 19.3333 87.4723 19.3333H99.4433V24H88.8024C87.4723 24 86.8072 24.6667 86.8072 26V36.6667C86.8072 37.1778 86.9513 37.5889 87.2395 37.9C87.5498 38.1889 87.9378 38.3333 88.4033 38.3333C88.8689 38.3333 89.3788 38.3333 89.933 38.3333C90.4872 38.3111 91.0636 38.2889 91.6621 38.2667C92.2607 38.2444 92.8592 38.2222 93.4578 38.2C94.0785 38.1778 94.8655 38.1333 95.8188 38.0667C96.7942 38 98.0024 37.9222 99.4433 37.8333V42.3333Z" fill="#FFB600"/>
<path d="M108.758 38.3333C109.933 38.3333 111.263 38.1111 112.748 37.6667V35.6667H107.927C107.594 35.6667 107.317 35.7778 107.095 36C106.874 36.2222 106.763 36.5 106.763 36.8333V37.1667C106.763 37.5 106.874 37.7778 107.095 38C107.317 38.2222 107.594 38.3333 107.927 38.3333H108.758ZM102.606 25.3333C106.663 24.8889 110.321 24.6667 113.58 24.6667C115.087 24.6667 116.295 25.1222 117.204 26.0333C118.113 26.9444 118.568 28.1556 118.568 29.6667V42.6667H113.413L113.081 41C112.039 41.6889 110.964 42.2 109.855 42.5333C108.769 42.8444 107.849 43 107.095 43H105.932C104.424 43 103.216 42.5444 102.307 41.6333C101.398 40.7222 100.944 39.5111 100.944 38V36.5C100.944 34.9889 101.398 33.7778 102.307 32.8667C103.216 31.9556 104.424 31.5 105.932 31.5H112.748V30.1667C112.748 29.8333 112.638 29.5556 112.416 29.3333C112.194 29.1111 111.917 29 111.585 29C110.144 29 108.547 29.0667 106.796 29.2C105.067 29.3333 103.67 29.4333 102.606 29.5V25.3333Z" fill="#FFB600"/>
<path d="M120.886 38C125.387 38.3333 128.934 38.5 131.527 38.5C131.86 38.5 132.137 38.3889 132.359 38.1667C132.58 37.9444 132.691 37.6667 132.691 37.3333V36.1667H125.542C124.034 36.1667 122.826 35.7111 121.917 34.8C121.008 33.8889 120.554 32.6778 120.554 31.1667V30C120.554 28.4889 121.008 27.2778 121.917 26.3667C122.826 25.4556 124.034 25 125.542 25H136.848V29.3333H127.537C127.204 29.3333 126.927 29.4444 126.706 29.6667C126.484 29.8889 126.373 30.1667 126.373 30.5C126.373 30.8333 126.484 31.1111 126.706 31.3333C126.927 31.5556 127.204 31.6667 127.537 31.6667H133.522C135.03 31.6667 136.238 32.1222 137.147 33.0333C138.056 33.9444 138.51 35.1556 138.51 36.6667V38C138.51 39.5111 138.056 40.7222 137.147 41.6333C136.238 42.5444 135.03 43 133.522 43C129.599 43 125.387 42.7778 120.886 42.3333V38Z" fill="#FFB600"/>
<path d="M147.832 25.6667V42.6667H142.012V30.1667H139.518V25.6667H147.832ZM142.012 19H147.832V23.6667H142.012V19Z" fill="#FFB600"/>
<path d="M160.977 29.5C159.802 29.5 158.472 29.7222 156.987 30.1667V42.6667H151.167V25H156.322L156.654 26.6667C157.696 25.9778 158.76 25.4778 159.846 25.1667C160.955 24.8333 161.886 24.6667 162.64 24.6667H164.136C165.643 24.6667 166.852 25.1222 167.761 26.0333C168.67 26.9444 169.124 28.1556 169.124 29.6667V42.6667H163.305V30.6667C163.305 30.3333 163.194 30.0556 162.972 29.8333C162.75 29.6111 162.473 29.5 162.141 29.5H160.977Z" fill="#FFB600"/>
<path d="M190.069 37.6667C190.069 39.3333 189.593 40.6444 188.64 41.6C187.709 42.5333 186.412 43 184.749 43H177.101C175.438 43 174.13 42.5333 173.177 41.6C172.246 40.6444 171.78 39.3333 171.78 37.6667V30C171.78 28.3333 172.246 27.0333 173.177 26.1C174.13 25.1444 175.438 24.6667 177.101 24.6667H184.749C186.412 24.6667 187.709 25.1444 188.64 26.1C189.593 27.0333 190.069 28.3333 190.069 30V37.6667ZM184.25 30.5C184.25 29.6111 183.807 29.1667 182.92 29.1667H178.93C178.043 29.1667 177.6 29.6111 177.6 30.5V37.1667C177.6 38.0556 178.043 38.5 178.93 38.5H182.92C183.807 38.5 184.25 38.0556 184.25 37.1667V30.5Z" fill="#FFB600"/>
<path d="M196.882 42.6667V24.5L193.058 25.8333L191.396 22L197.548 19.3333H202.868V42.6667H196.882Z" fill="#FFB600"/>
<path d="M219.836 25.6667C219.836 24.3333 219.171 23.6667 217.841 23.6667H214.183C212.853 23.6667 212.188 24.3333 212.188 25.6667V36.3333C212.188 37.6667 212.853 38.3333 214.183 38.3333H217.841C219.171 38.3333 219.836 37.6667 219.836 36.3333V25.6667ZM225.822 36.3333C225.822 38.6667 225.29 40.3667 224.226 41.4333C223.184 42.4778 221.499 43 219.171 43H212.853C210.525 43 208.829 42.4778 207.765 41.4333C206.723 40.3667 206.202 38.6667 206.202 36.3333V25.6667C206.202 23.3333 206.723 21.6444 207.765 20.6C208.829 19.5333 210.525 19 212.853 19H219.171C221.499 19 223.184 19.5333 224.226 20.6C225.29 21.6444 225.822 23.3333 225.822 25.6667V36.3333Z" fill="#FFB600"/>
<path d="M63.8911 30.4588C63.8911 30.3839 63.8787 30.2964 63.8787 30.2215C63.8787 30.1715 63.8787 30.1215 63.8662 30.0715C63.8537 29.7592 63.8287 29.4344 63.7912 29.122C63.7538 28.7597 63.7163 28.3974 63.6789 28.0351C63.6664 27.9102 63.6414 27.7728 63.6289 27.6478C63.6164 27.5229 63.5915 27.3855 63.579 27.2605C63.5415 26.9857 63.4916 26.7233 63.4541 26.4485C63.4292 26.336 63.4167 26.2111 63.3917 26.0987C63.3667 25.9737 63.3418 25.8363 63.3168 25.7114C63.2918 25.5864 63.2668 25.4615 63.2419 25.3241C63.1919 25.0867 63.142 24.8493 63.0795 24.6119C63.0421 24.4745 63.0171 24.3371 62.9797 24.2122C62.7549 23.3126 62.4927 22.4256 62.193 21.5511C62.1556 21.4261 62.1056 21.3012 62.0682 21.1763C61.9433 20.8265 61.806 20.4641 61.6686 20.1143C61.6187 19.9894 61.5687 19.877 61.5188 19.752C61.4813 19.6521 61.4314 19.5521 61.3939 19.4397C61.344 19.3272 61.294 19.2148 61.2441 19.0899C61.1941 18.9899 61.1567 18.89 61.1067 18.79C61.0693 18.7026 61.0318 18.6276 60.9944 18.5527C60.9819 18.5277 60.9694 18.4902 60.9569 18.4652C60.9195 18.3778 60.882 18.2903 60.8321 18.2153C60.7447 18.0154 60.6448 17.828 60.5449 17.6282C60.4824 17.5157 60.4325 17.4033 60.3701 17.2908C60.2327 17.0285 60.0954 16.7786 59.958 16.5162C59.9206 16.4538 59.8831 16.3788 59.8457 16.3163C59.8207 16.2664 59.7832 16.2039 59.7583 16.1539C59.7208 16.079 59.6709 16.004 59.6334 15.9291C59.571 15.8166 59.496 15.6917 59.4336 15.5792C59.1964 15.1795 58.9467 14.7797 58.6845 14.3924C58.5471 14.1925 58.4222 13.9926 58.2849 13.7927C58.1975 13.6553 58.0976 13.5303 58.0102 13.4054C57.9353 13.293 57.8604 13.193 57.773 13.0806C57.7355 13.0306 57.7105 12.9806 57.6731 12.9431C57.5482 12.7682 57.4109 12.5933 57.286 12.4309C57.1237 12.2185 56.9614 12.0186 56.7866 11.8062C56.7491 11.7563 56.6992 11.7063 56.6617 11.6563C56.2746 11.1816 55.8751 10.7318 55.4631 10.2821C55.4006 10.2196 55.3507 10.1571 55.2882 10.0947L55.2758 10.0822C55.1884 9.9947 55.1134 9.90725 55.026 9.8198C54.8887 9.68237 54.7513 9.54494 54.614 9.40752C54.5141 9.30757 54.4142 9.20762 54.3143 9.12017C54.2519 9.0577 54.1895 9.00773 54.1395 8.94526C54.0521 8.85781 53.9522 8.77035 53.8648 8.6829C53.7525 8.58295 53.6401 8.47051 53.5277 8.37057C53.4029 8.25813 53.278 8.14569 53.1531 8.03325C53.0158 7.92081 52.8909 7.79587 52.7536 7.68343C52.6662 7.60847 52.5788 7.53351 52.4914 7.45855C52.3915 7.3711 52.2791 7.28364 52.1792 7.19619C52.0793 7.10874 51.967 7.02128 51.8671 6.94632C51.7797 6.88386 51.6923 6.8089 51.6049 6.73394C51.5175 6.65898 51.4176 6.58402 51.3302 6.52155C51.2677 6.47157 51.2053 6.43409 51.1554 6.38412C51.0804 6.33415 51.0055 6.27168 50.9306 6.22171C50.8932 6.19672 50.8557 6.17173 50.8182 6.14675C50.7433 6.09677 50.6809 6.0468 50.606 5.99683C50.4811 5.90937 50.3687 5.82192 50.2439 5.74696C50.0191 5.59704 49.8069 5.44712 49.5821 5.2972C49.4573 5.20974 49.3199 5.12229 49.1951 5.04733C49.0827 4.97237 48.9578 4.89741 48.8454 4.82245C48.8205 4.79746 48.783 4.78497 48.7456 4.75998C48.6457 4.69752 48.5583 4.64754 48.4584 4.58508C48.4209 4.56009 48.3835 4.5351 48.346 4.51012C48.2211 4.43516 48.1088 4.37269 47.9839 4.29773C47.8466 4.22277 47.7217 4.14781 47.5844 4.07285C47.5219 4.03537 47.4595 4.01038 47.3971 3.9729C47.0475 3.7855 46.6978 3.5981 46.3357 3.4107C46.2483 3.37322 46.1609 3.32325 46.086 3.28577C45.9986 3.24829 45.9112 3.19831 45.8363 3.16083C45.7489 3.12335 45.6615 3.07338 45.5741 3.0359C45.4867 2.99842 45.3993 2.94845 45.3119 2.91097C44.8374 2.69858 44.3629 2.49868 43.8885 2.29879C43.7636 2.24882 43.6512 2.19884 43.5264 2.16136C43.4015 2.11139 43.2892 2.07391 43.1643 2.02394C43.0769 1.98646 42.977 1.96147 42.8896 1.92399C42.7273 1.86152 42.565 1.81155 42.3902 1.74908C42.2778 1.7116 42.1779 1.67412 42.0655 1.63664C41.3663 1.39927 40.6546 1.19937 39.9429 1.01197C39.843 0.986987 39.7556 0.962 39.6557 0.937013C39.5433 0.912026 39.4434 0.88704 39.3311 0.862053C39.2437 0.837066 39.1438 0.824573 39.0564 0.799586C38.9315 0.774599 38.8067 0.749613 38.6818 0.724626C38.5944 0.699639 38.507 0.687146 38.4196 0.674653C38.3572 0.662159 38.2947 0.649666 38.2198 0.637172C37.5456 0.499745 36.8713 0.387305 36.1846 0.299852C36.0972 0.287358 35.9973 0.274865 35.9099 0.262371C35.6102 0.224891 35.3106 0.199905 35.0234 0.162425C34.9235 0.149931 34.8111 0.137438 34.7112 0.137438C34.449 0.112451 34.1743 0.0999577 33.8996 0.0874643C33.8372 0.0874643 33.7748 0.0749709 33.7123 0.0749709C33.6499 0.0749709 33.5875 0.0749709 33.5251 0.0624776C33.5001 0.0624776 33.4751 0.0624776 33.4501 0.0624776C33.3003 0.0499842 33.1505 0.0499842 33.0131 0.0499842C32.9882 0.0499842 32.9757 0.0499842 32.9507 0.0499842C32.8009 0.0499842 32.651 0.0374908 32.5012 0.0374908C32.3514 0.0374908 32.189 0.0374908 32.0392 0.0374908C31.4149 0.0374908 30.7906 0.0499842 30.1663 0.0874643C25.7213 0.337332 21.451 1.49921 17.5679 3.48566C17.4555 3.54813 17.3431 3.5981 17.2432 3.66057C16.9186 3.83547 16.594 4.01038 16.2693 4.18529C15.6076 4.56009 14.9708 4.95988 14.334 5.37216C14.0218 5.57205 13.7222 5.78444 13.4225 6.00932C11.9492 6.9838 10.6131 8.1207 9.36454 9.37004C8.06599 10.6693 6.8923 12.0561 5.85596 13.5303C5.63121 13.8552 5.40646 14.18 5.1942 14.5048C4.50747 15.5543 3.88316 16.6412 3.33378 17.7531C1.39844 21.6135 0.287179 25.8363 0.0499442 30.234C0.0249721 30.8211 0 31.3958 0 31.983C0 32.6452 0.0249721 33.3198 0.0624303 33.982C0.0874024 34.3193 0.112374 34.6566 0.137347 34.9939C0.47447 38.6045 1.41092 42.0777 2.88428 45.3135C3.05908 45.6883 3.23389 46.0631 3.42118 46.4254C3.98305 47.5373 4.61984 48.6117 5.30657 49.6611C6.48026 51.4102 7.82876 53.0718 9.35205 54.596C10.9253 56.1702 12.6359 57.5569 14.4464 58.7563C15.4952 59.4435 16.5815 60.0681 17.6927 60.6303C18.0049 60.7927 18.3295 60.9427 18.6417 61.0801C21.8881 62.5668 25.3841 63.5038 29.0051 63.8286C29.3797 63.8661 29.7668 63.8911 30.1538 63.9161C30.7532 63.9536 31.34 63.966 31.9518 63.966C32.1516 63.966 32.3514 63.966 32.5511 63.966C32.651 63.966 32.7634 63.966 32.8633 63.9536C32.8758 63.9536 32.8883 63.9536 32.8883 63.9536C32.9257 63.9536 32.9632 63.9536 33.0006 63.9536C33.0006 63.9536 33.0131 63.9536 33.0256 63.9536C33.163 63.9536 33.2878 63.9411 33.4252 63.9411C33.575 63.9411 33.7123 63.9286 33.8497 63.9161C33.8747 63.9161 33.8871 63.9161 33.9121 63.9161C34.062 63.9036 34.1993 63.9036 34.3491 63.8911C34.6113 63.8661 34.8735 63.8536 35.1358 63.8286C35.2731 63.8161 35.4104 63.8036 35.5478 63.7786C35.6851 63.7662 35.8225 63.7537 35.9598 63.7287C36.0847 63.7162 36.1971 63.7037 36.3094 63.6787C36.3844 63.6662 36.4718 63.6537 36.5467 63.6412C36.6091 63.6287 36.6591 63.6287 36.709 63.6162C36.8339 63.6037 36.9587 63.5788 37.0711 63.5538C37.1585 63.5413 37.2584 63.5288 37.3458 63.5038C37.4082 63.4913 37.4831 63.4788 37.558 63.4663C37.5705 63.4663 37.583 63.4663 37.5955 63.4663C37.6704 63.4538 37.7329 63.4413 37.8078 63.4288C37.8327 63.4288 37.8577 63.4163 37.8827 63.4163C37.9576 63.4039 38.02 63.3914 38.095 63.3789C38.1074 63.3789 38.1199 63.3789 38.1449 63.3664C38.1948 63.3539 38.2573 63.3414 38.3072 63.3414C38.4196 63.3164 38.5195 63.3039 38.6194 63.2789C38.944 63.2164 39.2811 63.129 39.6058 63.054C39.7181 63.029 39.8305 63.0041 39.9429 62.9666C40.0053 62.9541 40.0802 62.9291 40.1427 62.9166C40.2301 62.8916 40.3175 62.8666 40.4049 62.8416C40.5048 62.8167 40.6171 62.7792 40.717 62.7542C40.8044 62.7292 40.9043 62.7042 40.9917 62.6792C41.1665 62.6293 41.3538 62.5793 41.5286 62.5168C41.641 62.4793 41.7659 62.4419 41.8782 62.4044C42.0031 62.3669 42.1279 62.3169 42.2653 62.2794C42.3277 62.2545 42.3902 62.242 42.4526 62.217C42.515 62.192 42.5774 62.1795 42.6399 62.1545C42.7647 62.1045 42.8896 62.0671 43.0145 62.0171C43.1393 61.9671 43.2642 61.9296 43.389 61.8797C43.5139 61.8297 43.6388 61.7797 43.7636 61.7297C43.8885 61.6798 44.0133 61.6298 44.1382 61.5798C44.2631 61.5298 44.3879 61.4799 44.5128 61.4299C44.5253 61.4299 44.5253 61.4299 44.5378 61.4174C44.6876 61.3549 44.8374 61.2925 44.9873 61.2175H44.9997C45.1496 61.155 45.2994 61.0801 45.4367 61.0176C45.7364 60.8802 46.0361 60.7303 46.3357 60.5803C46.4731 60.5054 46.6104 60.4429 46.7478 60.368C46.8602 60.3055 46.96 60.2555 47.0724 60.1931C47.3846 60.0306 47.6967 59.8557 48.0089 59.6683C48.1337 59.5934 48.2586 59.5184 48.3835 59.4435C48.6706 59.2685 48.9578 59.0936 49.245 58.9062C49.3574 58.8313 49.4697 58.7563 49.5821 58.6814C49.8818 58.4815 50.169 58.2816 50.4561 58.0817C50.6434 57.9567 50.8182 57.8193 50.993 57.6944C51.1678 57.5694 51.3427 57.432 51.5175 57.2946L51.7297 57.1322C51.8296 57.0447 51.942 56.9698 52.0419 56.8823C52.1293 56.8074 52.2167 56.7449 52.3041 56.6699C52.404 56.5825 52.5039 56.5075 52.6037 56.4201C53.2655 55.8579 53.9148 55.2582 54.5391 54.6335C54.6889 54.4836 54.8263 54.3337 54.9761 54.1962C55.0635 54.1088 55.1509 54.0213 55.2258 53.9339C55.3881 53.759 55.5505 53.5841 55.7128 53.4092C55.8626 53.2342 56.0124 53.0718 56.1623 52.8969C56.1748 52.8844 56.1872 52.8594 56.2122 52.847C56.2996 52.747 56.387 52.6471 56.4744 52.5346C56.6118 52.3722 56.7366 52.2223 56.8615 52.0599C56.9114 51.9974 56.9739 51.9224 57.0238 51.86C57.0987 51.76 57.1736 51.6726 57.2486 51.5726C57.3235 51.4727 57.3984 51.3852 57.4733 51.2853C57.5982 51.1229 57.723 50.9605 57.8354 50.798C57.8978 50.7106 57.9603 50.6231 58.0227 50.5482L58.0352 50.5357C58.16 50.3483 58.2974 50.1609 58.4222 49.9735C58.5096 49.8485 58.5846 49.7236 58.672 49.6112L58.6845 49.5987L58.6969 49.5862C58.7469 49.5112 58.7968 49.4363 58.8468 49.3613C58.8593 49.3363 58.8842 49.3113 58.8967 49.2738C58.9966 49.1239 59.0965 48.9615 59.1964 48.7991C59.2838 48.6617 59.3587 48.5367 59.4336 48.3993C59.4586 48.3493 59.496 48.2869 59.5335 48.2369C59.5834 48.1619 59.6334 48.0745 59.6709 47.9995C59.9081 47.5872 60.1328 47.175 60.3451 46.7627C60.42 46.6253 60.4824 46.4878 60.5574 46.3504C60.6697 46.138 60.7696 45.9256 60.8695 45.7007C60.9569 45.5258 61.0318 45.3509 61.1192 45.176C61.1692 45.0761 61.2066 44.9886 61.2441 44.8887C61.294 44.7762 61.344 44.6638 61.3939 44.5389C61.6187 44.0266 61.8185 43.5019 62.0057 42.9772C62.0432 42.8897 62.0682 42.7898 62.1056 42.7023C62.2305 42.3525 62.3429 42.0152 62.4552 41.6654C62.4927 41.553 62.5302 41.428 62.5676 41.3156C62.6051 41.2031 62.63 41.0907 62.6675 40.9907C62.705 40.8408 62.7549 40.6909 62.7924 40.541C62.7924 40.516 62.8049 40.491 62.8049 40.4785C62.8423 40.3536 62.8673 40.2287 62.9047 40.1037C62.9172 40.0787 62.9172 40.0413 62.9297 40.0038C62.9547 39.9038 62.9797 39.8039 63.0046 39.7039C63.0171 39.6415 63.0421 39.5665 63.0546 39.504C63.1919 38.9044 63.3168 38.3047 63.4292 37.6925C63.4416 37.605 63.4666 37.5051 63.4791 37.4176C63.4916 37.3427 63.5041 37.2677 63.5166 37.1803C63.5415 37.0553 63.554 36.9179 63.579 36.793C63.604 36.668 63.6164 36.5306 63.6289 36.4057C63.6539 36.2183 63.6789 36.0309 63.7038 35.8435C63.7163 35.7435 63.7288 35.6311 63.7413 35.5311C63.7538 35.3937 63.7663 35.2563 63.7788 35.1189C63.7912 35.0564 63.7912 34.9814 63.8037 34.919C63.8037 34.8565 63.8162 34.7815 63.8162 34.7191C63.8287 34.5941 63.8287 34.4817 63.8412 34.3568C63.8412 34.3068 63.8537 34.2568 63.8537 34.1944C63.8537 34.0944 63.8662 33.9945 63.8662 33.8945C63.8787 33.7446 63.8787 33.5947 63.8911 33.4323C63.9036 33.1324 63.9161 32.8201 63.9161 32.5202C63.9161 32.3703 63.9161 32.2079 63.9161 32.058V32.0205C63.9286 31.4458 63.9161 30.9461 63.8911 30.4588ZM32.0018 51.0854C20.9891 51.0854 12.074 42.1526 12.074 31.146C12.074 20.1393 21.0015 11.1941 32.0018 11.1941C43.002 11.1941 51.9295 20.1268 51.9295 31.1335C51.9295 42.1401 43.0145 51.0854 32.0018 51.0854Z" fill="#FFB600"/>
<path d="M63.9786 30.4838C63.9786 30.4089 63.9662 30.3214 63.9662 30.2464C63.9662 30.1965 63.9662 30.1465 63.9537 30.109C63.9287 29.7842 63.9162 29.4718 63.8788 29.1595C63.8413 28.7972 63.8038 28.4349 63.7664 28.0726C63.7539 27.9477 63.7289 27.8102 63.7164 27.6853C63.7039 27.5604 63.679 27.4229 63.6665 27.298C63.629 27.0232 63.5791 26.7608 63.5416 26.4859C63.5167 26.3735 63.5042 26.2486 63.4792 26.1361C63.4542 26.0112 63.4293 25.8738 63.4043 25.7488C63.3793 25.6239 63.3543 25.4865 63.3294 25.3615C63.2794 25.1242 63.2295 24.8868 63.167 24.6494C63.1296 24.512 63.1046 24.3746 63.0672 24.2496C62.8424 23.3501 62.5802 22.4631 62.2805 21.576C62.2431 21.4511 62.1931 21.3262 62.1557 21.2012C62.0308 20.8514 61.8935 20.4891 61.7561 20.1393C61.7062 20.0144 61.6562 19.9019 61.6063 19.777C61.5688 19.6771 61.5189 19.5771 61.4814 19.4647C61.4315 19.3522 61.3815 19.2398 61.3316 19.1148C61.2817 19.0149 61.2442 18.915 61.1943 18.815C61.1568 18.74 61.1193 18.6526 61.0819 18.5776C61.0694 18.5526 61.0569 18.5152 61.0444 18.4902C61.007 18.4027 60.9695 18.3153 60.9196 18.2278C60.8322 18.0279 60.7323 17.8405 60.6324 17.6406C60.5699 17.5282 60.52 17.4158 60.4576 17.3033C60.3202 17.041 60.1829 16.7911 60.0455 16.5287C60.0081 16.4663 59.9706 16.3913 59.9332 16.3288C59.8582 16.1914 59.7833 16.0665 59.7084 15.929C59.646 15.8166 59.5711 15.7042 59.5086 15.5792C59.2714 15.1794 59.0217 14.7797 58.7595 14.3924L50.4937 19.1773C48.9704 16.991 47.06 15.0795 44.8625 13.5553L49.6322 5.2722C49.5073 5.18475 49.37 5.10979 49.2451 5.02233C49.1327 4.94737 49.0079 4.87241 48.8955 4.79745C48.8705 4.77247 48.8331 4.75997 48.7956 4.73499C48.6582 4.64753 48.5209 4.57257 48.396 4.48512C48.2712 4.41016 48.1588 4.34769 48.034 4.27273C47.8966 4.19777 47.7717 4.12281 47.6344 4.04785C47.572 4.01037 47.5095 3.98538 47.4471 3.9479C47.0975 3.7605 46.7479 3.5731 46.3858 3.3857C46.2984 3.33573 46.211 3.29825 46.1361 3.26077C46.0487 3.22329 45.9613 3.17332 45.8863 3.13583C45.8114 3.09835 45.7115 3.04838 45.6241 3.0109C45.5367 2.97342 45.4493 2.93594 45.3619 2.88597C44.8875 2.67358 44.413 2.46119 43.9385 2.27379C43.8137 2.22382 43.7013 2.17385 43.5764 2.13637C43.4516 2.08639 43.3392 2.04891 43.2143 1.99894C43.1269 1.96146 43.027 1.93647 42.9396 1.89899C42.7773 1.83652 42.615 1.78655 42.4402 1.72408C42.3278 1.6866 42.2279 1.64912 42.1156 1.61164C41.4163 1.37427 40.7046 1.17438 39.9929 0.986976C39.893 0.961989 39.8056 0.937002 39.7057 0.912016C39.5934 0.887029 39.4935 0.862042 39.3811 0.837056C39.2937 0.812069 39.1938 0.799575 39.1064 0.774589C38.9816 0.749602 38.8567 0.724615 38.7318 0.699628C38.6444 0.674642 38.557 0.662148 38.4696 0.649655C38.4072 0.637162 38.3448 0.624668 38.2699 0.612175C37.5956 0.474748 36.9214 0.362308 36.2346 0.274854C36.1472 0.262361 36.0473 0.249867 35.9599 0.237374C35.6603 0.199894 35.3606 0.174907 35.0734 0.137427C34.9735 0.124934 34.8612 0.11244 34.7613 0.11244C34.4991 0.0874536 34.2244 0.0749602 33.9497 0.0624668C33.8872 0.0624668 33.8248 0.0499735 33.7624 0.0499735C33.7 0.0499735 33.6375 0.0374801 33.5751 0.0374801C33.3878 0.0249867 33.188 0.0249867 33.0007 0.0124934C32.9258 0.0124934 32.8509 0.0124934 32.776 0C32.7011 0 32.6262 0 32.5512 0C32.4014 0 32.2391 0 32.0893 0C31.465 0 30.8407 0.0124934 30.2163 0.0499735V9.58241C27.4444 9.80729 24.8224 10.5444 22.4251 11.6938L17.6179 3.43568C17.5055 3.49814 17.3932 3.54812 17.2933 3.61058C16.9686 3.78549 16.644 3.9604 16.3194 4.1478C15.6576 4.5226 15.0208 4.92239 14.384 5.33467C14.0719 5.54705 13.7722 5.74695 13.4725 5.97183C12.0741 6.98379 10.7381 8.12069 9.4895 9.37002C8.19095 10.6693 7.01726 12.0686 5.98092 13.5303C5.75617 13.8551 5.53142 14.18 5.31916 14.5048C4.63242 15.5542 4.00812 16.6412 3.45873 17.7531L11.7495 22.5006C10.6382 24.8743 9.939 27.4604 9.71425 30.1965L0.124956 30.2589C0.0874983 30.8461 0.0750122 31.4208 0.0750122 32.008C0.0750122 32.6826 0.0999843 33.3448 0.137442 34.0069C0.162415 34.3443 0.187387 34.6816 0.212359 35.0189C0.549482 38.6295 1.47345 42.1026 2.95929 45.3384C3.1341 45.7132 3.3089 46.088 3.49619 46.4503C4.05806 47.5622 4.69485 48.6367 5.38159 49.6861L13.6349 44.8762C15.1707 47.0625 17.081 48.9615 19.2786 50.4857L14.5214 58.7813C15.5702 59.4684 16.6565 60.0931 17.7678 60.6553C18.0799 60.8177 18.4045 60.9676 18.7167 61.1051C21.9631 62.5918 25.4592 63.5288 29.0801 63.8536C29.4672 63.8911 29.8418 63.9161 30.2288 63.941C30.8282 63.9785 31.4275 63.991 32.0268 63.991C32.2266 63.991 32.4264 63.991 32.6262 63.991C32.726 63.991 32.8384 63.991 32.9383 63.9785C32.9508 63.9785 32.9633 63.9785 32.9633 63.9785C33.0007 63.9785 33.0382 63.9785 33.0757 63.9785C33.0757 63.9785 33.0881 63.9785 33.1006 63.9785C33.238 63.9785 33.3628 63.966 33.5002 63.966C33.6375 63.966 33.7874 63.9535 33.9247 63.941C33.9372 63.941 33.9622 63.941 33.9871 63.941L33.9622 54.3961C36.6841 54.1587 39.2812 53.4466 41.6411 52.3222L46.4482 60.5928C46.5856 60.5179 46.7229 60.4554 46.8603 60.3804C46.9726 60.318 47.0725 60.268 47.1849 60.2055C47.497 60.0431 47.8092 59.8682 48.1213 59.6808C48.2462 59.6059 48.3711 59.5309 48.4959 59.4559C48.7831 59.281 49.0703 59.1061 49.3575 58.9187C49.4698 58.8438 49.5822 58.7688 49.6946 58.6938C49.9943 58.4939 50.2814 58.294 50.5686 58.0942C50.7559 57.9692 50.9307 57.8318 51.1055 57.7069C51.2803 57.5694 51.4551 57.4445 51.6299 57.3071L51.8422 57.1447C51.9421 57.0572 52.0545 56.9822 52.1543 56.8948C52.2417 56.8198 52.3291 56.7574 52.4165 56.6824C52.5164 56.5949 52.6163 56.52 52.7162 56.4325C53.378 55.8703 54.0273 55.2706 54.6516 54.646C54.8014 54.4961 54.9387 54.3461 55.0886 54.2087C55.176 54.1213 55.2634 54.0338 55.3383 53.9464C55.5006 53.7714 55.6629 53.5965 55.8252 53.4216C55.9751 53.2467 56.1249 53.0843 56.2747 52.9094C56.2872 52.8969 56.2997 52.8719 56.3247 52.8594C56.4121 52.7595 56.4995 52.6595 56.5869 52.5471C56.7242 52.3847 56.8491 52.2348 56.974 52.0723C57.0239 52.0099 57.0863 51.9349 57.1363 51.8725C57.2112 51.7725 57.2861 51.6851 57.361 51.5851C57.4359 51.4852 57.5109 51.3977 57.5858 51.2978C57.7106 51.1353 57.8355 50.9729 57.9479 50.8105C58.0103 50.7231 58.0727 50.6356 58.1352 50.5607L58.1477 50.5482C58.2725 50.3608 58.4099 50.1734 58.5347 49.986C58.6221 49.861 58.697 49.7361 58.7844 49.6236L58.7969 49.6112L58.8094 49.5987C58.8594 49.5237 58.9093 49.4487 58.9592 49.3738C58.9717 49.3488 58.9967 49.3238 59.0092 49.2863C59.1091 49.1364 59.209 48.974 59.3089 48.8116C59.3838 48.6742 59.4712 48.5492 59.5461 48.4118C59.621 48.2744 59.7084 48.1494 59.7833 48.012C60.0206 47.5997 60.2453 47.1874 60.4576 46.7752C60.5325 46.6377 60.5949 46.5003 60.6698 46.3629L52.3916 41.6029C53.5028 39.2292 54.2145 36.643 54.4393 33.907L63.9662 33.8945C63.9786 33.7446 63.9786 33.5947 63.9911 33.4322C64.0036 33.1324 64.0161 32.8201 64.0161 32.5202C64.0161 32.3703 64.0161 32.2079 64.0161 32.058C64.0036 31.5083 63.9911 30.996 63.9786 30.4838ZM32.0393 50.7356C21.7258 50.7356 13.3227 42.34 13.3227 32.008C13.3227 21.676 21.7258 13.2929 32.0393 13.2929C42.3528 13.2929 50.7559 21.6885 50.7559 32.008C50.7559 42.3275 42.3653 50.7356 32.0393 50.7356Z" fill="#CC8800"/>
<path d="M26.7701 41.9653H21.4011V26.7608H19.2535V22.0883H26.7701V41.9653Z" fill="#FFB600"/>
<path d="M44.8374 32.1579C44.8374 35.2688 44.2256 37.73 42.9895 39.5665C41.7534 41.3905 40.0927 42.3025 38.0076 42.3025C35.7476 42.3025 33.9871 41.378 32.7135 39.5415C31.4399 37.705 30.8156 35.1438 30.8156 31.8456C30.8156 28.7347 31.4524 26.2735 32.7135 24.462C33.9871 22.638 35.7101 21.7384 37.8827 21.7384C40.0678 21.7384 41.7784 22.663 43.002 24.4995C44.2256 26.336 44.8374 28.8971 44.8374 32.1579ZM39.5434 32.1079C39.5434 28.2725 38.969 26.361 37.8078 26.361C36.6591 26.361 36.0847 28.0726 36.0847 31.5083C36.0847 35.6061 36.6466 37.655 37.7703 37.655C38.3822 37.655 38.8316 37.2052 39.1188 36.3057C39.3935 35.4187 39.5434 34.0194 39.5434 32.1079Z" fill="#FFB600"/>
</svg>
