<svg width="109" height="92" viewBox="0 0 109 92" fill="none" xmlns="http://www.w3.org/2000/svg">
<g filter="url(#filter0_d)">
<path d="M43.8707 5.59891L6.10293 64.3487C3.53547 68.2137 3.3021 73.1775 5.49564 77.2663C7.68917 81.355 11.954 83.9058 16.594 83.904H92.1294C96.7485 83.8905 100.989 81.3486 103.178 77.2813C105.367 73.2139 105.153 68.2744 102.62 64.4117L64.8527 5.66185C62.5308 2.13851 58.5982 0.0127157 54.3786 5.68487e-05C50.159 -0.012602 46.2137 2.08955 43.8707 5.59891Z" fill="#C03A2B"/>
<path d="M16.594 77.6094C14.2948 77.608 12.1793 76.3532 11.0757 74.3362C9.93027 72.288 10.0192 69.7728 11.3065 67.8107L49.0742 9.06093C50.2405 7.30276 52.21 6.24579 54.3198 6.24579C56.4296 6.24579 58.3991 7.30276 59.5653 9.06093L97.333 67.8107C98.6203 69.7728 98.7093 72.288 97.5638 74.3362C96.4748 76.327 94.3985 77.5776 92.1295 77.6094H16.594Z" fill="#353535"/>
<path d="M50.1194 53.1979V31.9553H58.1294V53.1979H50.1194ZM49.1394 60.0229C49.1394 59.3404 49.2672 58.7005 49.5229 58.1033C49.7785 57.4777 50.1336 56.9374 50.588 56.4824C51.0425 56.0274 51.568 55.672 52.1645 55.416C52.7894 55.1601 53.4427 55.0321 54.1244 55.0321C54.8061 55.0321 55.4452 55.1601 56.0417 55.416C56.6666 55.672 57.2063 56.0274 57.6607 56.4824C58.1152 56.9374 58.4703 57.4777 58.7259 58.1033C58.9815 58.7005 59.1094 59.3404 59.1094 60.0229C59.1094 60.7053 58.9815 61.3594 58.7259 61.985C58.4703 62.5822 58.1152 63.1083 57.6607 63.5633C57.2063 64.0183 56.6666 64.3738 56.0417 64.6297C55.4452 64.8856 54.8061 65.0136 54.1244 65.0136C53.4427 65.0136 52.7894 64.8856 52.1645 64.6297C51.568 64.3738 51.0425 64.0183 50.588 63.5633C50.1336 63.1083 49.7785 62.5822 49.5229 61.985C49.2672 61.3594 49.1394 60.7053 49.1394 60.0229Z" fill="#F72D16"/>
</g>
<defs>
<filter id="filter0_d" x="0" y="0" width="108.682" height="91.904" filterUnits="userSpaceOnUse" color-interpolation-filters="sRGB">
<feFlood flood-opacity="0" result="BackgroundImageFix"/>
<feColorMatrix in="SourceAlpha" type="matrix" values="0 0 0 0 0 0 0 0 0 0 0 0 0 0 0 0 0 0 127 0"/>
<feOffset dy="4"/>
<feGaussianBlur stdDeviation="2"/>
<feColorMatrix type="matrix" values="0 0 0 0 0 0 0 0 0 0 0 0 0 0 0 0 0 0 0.25 0"/>
<feBlend mode="normal" in2="BackgroundImageFix" result="effect1_dropShadow"/>
<feBlend mode="normal" in="SourceGraphic" in2="effect1_dropShadow" result="shape"/>
</filter>
</defs>
</svg>
