<svg width="136" height="24" viewBox="0 0 136 24" fill="none" xmlns="http://www.w3.org/2000/svg">
<path d="M35.19 6.2H40.524V7.236H36.352V10.582H40.244V11.618H36.352V16H35.19V6.2Z" fill="#0066FF"/>
<path d="M42.1984 9.518C42.5531 9.30333 42.9638 9.14466 43.4304 9.042C43.9064 8.93933 44.4011 8.888 44.9144 8.888C45.3998 8.888 45.7871 8.95333 46.0764 9.084C46.3751 9.21466 46.5991 9.38733 46.7484 9.602C46.9071 9.80733 47.0098 10.036 47.0564 10.288C47.1124 10.54 47.1404 10.792 47.1404 11.044C47.1404 11.604 47.1264 12.15 47.0984 12.682C47.0704 13.214 47.0564 13.718 47.0564 14.194C47.0564 14.5393 47.0704 14.866 47.0984 15.174C47.1264 15.482 47.1778 15.7667 47.2524 16.028H46.4264L46.1324 15.048H46.0624C45.9784 15.1787 45.8711 15.3093 45.7404 15.44C45.6191 15.5613 45.4698 15.6733 45.2924 15.776C45.1151 15.8693 44.9098 15.9487 44.6764 16.014C44.4431 16.0793 44.1771 16.112 43.8784 16.112C43.5798 16.112 43.2998 16.0653 43.0384 15.972C42.7864 15.8787 42.5671 15.748 42.3804 15.58C42.1938 15.4027 42.0444 15.1927 41.9324 14.95C41.8298 14.7073 41.7784 14.432 41.7784 14.124C41.7784 13.7133 41.8624 13.3727 42.0304 13.102C42.1984 12.822 42.4318 12.6027 42.7304 12.444C43.0384 12.276 43.4024 12.1593 43.8224 12.094C44.2518 12.0193 44.7231 11.982 45.2364 11.982C45.3671 11.982 45.4931 11.982 45.6144 11.982C45.7451 11.982 45.8758 11.9913 46.0064 12.01C46.0344 11.73 46.0484 11.478 46.0484 11.254C46.0484 10.7407 45.9458 10.3813 45.7404 10.176C45.5351 9.97066 45.1618 9.868 44.6204 9.868C44.4618 9.868 44.2891 9.882 44.1024 9.91C43.9251 9.92866 43.7384 9.96133 43.5424 10.008C43.3558 10.0453 43.1738 10.0967 42.9964 10.162C42.8284 10.218 42.6791 10.2833 42.5484 10.358L42.1984 9.518ZM44.1864 15.132C44.4478 15.132 44.6811 15.0993 44.8864 15.034C45.0918 14.9593 45.2691 14.8707 45.4184 14.768C45.5678 14.656 45.6891 14.5347 45.7824 14.404C45.8851 14.2733 45.9598 14.1473 46.0064 14.026V12.864C45.8758 12.8547 45.7404 12.85 45.6004 12.85C45.4698 12.8407 45.3391 12.836 45.2084 12.836C44.9191 12.836 44.6344 12.8547 44.3544 12.892C44.0838 12.92 43.8411 12.9807 43.6264 13.074C43.4211 13.158 43.2531 13.2793 43.1224 13.438C43.0011 13.5873 42.9404 13.7787 42.9404 14.012C42.9404 14.3387 43.0571 14.6093 43.2904 14.824C43.5238 15.0293 43.8224 15.132 44.1864 15.132Z" fill="#0066FF"/>
<path d="M52.3357 14.096C52.3357 13.816 52.2517 13.5967 52.0837 13.438C51.9157 13.2793 51.7057 13.1487 51.4537 13.046C51.2111 12.934 50.9404 12.8313 50.6417 12.738C50.3524 12.6353 50.0817 12.5093 49.8297 12.36C49.5871 12.2013 49.3817 12.0007 49.2137 11.758C49.0457 11.5153 48.9617 11.1887 48.9617 10.778C48.9617 10.106 49.1531 9.616 49.5357 9.308C49.9184 8.99066 50.4504 8.832 51.1317 8.832C51.6357 8.832 52.0557 8.87866 52.3917 8.972C52.7371 9.056 53.0357 9.15866 53.2877 9.28L53.0217 10.204C52.8071 10.1013 52.5457 10.0127 52.2377 9.938C51.9391 9.854 51.6171 9.812 51.2717 9.812C50.8611 9.812 50.5577 9.882 50.3617 10.022C50.1751 10.162 50.0817 10.4047 50.0817 10.75C50.0817 10.9927 50.1657 11.184 50.3337 11.324C50.5017 11.4547 50.7071 11.576 50.9497 11.688C51.2017 11.7907 51.4724 11.8933 51.7617 11.996C52.0604 12.0987 52.3311 12.234 52.5737 12.402C52.8257 12.57 53.0357 12.7847 53.2037 13.046C53.3717 13.298 53.4557 13.634 53.4557 14.054C53.4557 14.3527 53.4044 14.6327 53.3017 14.894C53.2084 15.1553 53.0591 15.3793 52.8537 15.566C52.6484 15.7527 52.3917 15.8973 52.0837 16C51.7851 16.112 51.4304 16.168 51.0197 16.168C50.4877 16.168 50.0351 16.1167 49.6617 16.014C49.2884 15.9113 48.9757 15.79 48.7237 15.65L49.0597 14.698C49.2744 14.8193 49.5544 14.9313 49.8997 15.034C50.2451 15.1367 50.5951 15.188 50.9497 15.188C51.3511 15.188 51.6824 15.1087 51.9437 14.95C52.2051 14.7913 52.3357 14.5067 52.3357 14.096Z" fill="#0066FF"/>
<path d="M54.2243 9H55.3163V7.614L56.4363 7.292V9H58.3403V9.98H56.4363V13.858C56.4363 14.3433 56.497 14.6887 56.6183 14.894C56.7396 15.09 56.945 15.188 57.2343 15.188C57.477 15.188 57.6823 15.1647 57.8503 15.118C58.0183 15.062 58.205 14.992 58.4103 14.908L58.6623 15.762C58.4103 15.8833 58.135 15.9813 57.8363 16.056C57.5376 16.1307 57.2156 16.168 56.8703 16.168C56.301 16.168 55.8996 16.0093 55.6663 15.692C55.433 15.3653 55.3163 14.824 55.3163 14.068V9.98H54.2243V9Z" fill="#0066FF"/>
<path d="M65.3951 12.766L65.6191 14.39H65.6331L65.8711 12.738L67.8871 6.2H68.4471L70.4771 12.766L70.7151 14.39H70.7291L70.9811 12.738L72.6331 6.2H73.7671L71.0371 16.154H70.3931L68.4051 9.588L68.1531 8.104H68.0831L67.8311 9.602L65.8431 16.154H65.1991L62.3991 6.2H63.6311L65.3951 12.766Z" fill="#0066FF"/>
<path d="M75.1969 9H76.3169V16H75.1969V9ZM74.9589 6.872C74.9589 6.65733 75.0289 6.47533 75.1689 6.326C75.3182 6.16733 75.5049 6.088 75.7289 6.088C75.9529 6.088 76.1442 6.16733 76.3029 6.326C76.4615 6.47533 76.5409 6.65733 76.5409 6.872C76.5409 7.08666 76.4615 7.264 76.3029 7.404C76.1442 7.544 75.9529 7.614 75.7289 7.614C75.5049 7.614 75.3182 7.544 75.1689 7.404C75.0289 7.264 74.9589 7.08666 74.9589 6.872Z" fill="#0066FF"/>
<path d="M77.781 9H78.873V7.614L79.993 7.292V9H81.897V9.98H79.993V13.858C79.993 14.3433 80.0536 14.6887 80.175 14.894C80.2963 15.09 80.5016 15.188 80.791 15.188C81.0336 15.188 81.239 15.1647 81.407 15.118C81.575 15.062 81.7616 14.992 81.967 14.908L82.219 15.762C81.967 15.8833 81.6916 15.9813 81.393 16.056C81.0943 16.1307 80.7723 16.168 80.427 16.168C79.8576 16.168 79.4563 16.0093 79.223 15.692C78.9896 15.3653 78.873 14.824 78.873 14.068V9.98H77.781V9Z" fill="#0066FF"/>
<path d="M87.9431 16V12.01C87.9431 11.646 87.9198 11.3287 87.8731 11.058C87.8358 10.778 87.7611 10.5493 87.6491 10.372C87.5371 10.1853 87.3831 10.0453 87.1871 9.952C87.0004 9.85866 86.7531 9.812 86.4451 9.812C86.0064 9.812 85.6098 9.95666 85.2551 10.246C84.9004 10.526 84.6718 10.89 84.5691 11.338V16H83.4491V6.2H84.5691V9.784H84.6251C84.8678 9.49466 85.1571 9.266 85.4931 9.098C85.8384 8.92066 86.2631 8.832 86.7671 8.832C87.1591 8.832 87.4998 8.87866 87.7891 8.972C88.0784 9.056 88.3164 9.21 88.5031 9.434C88.6991 9.658 88.8391 9.96133 88.9231 10.344C89.0164 10.7173 89.0631 11.1933 89.0631 11.772V16H87.9431Z" fill="#0066FF"/>
<path d="M96.4813 13.592C96.4813 14.068 96.486 14.502 96.4953 14.894C96.5047 15.2767 96.5467 15.6547 96.6213 16.028H95.8653L95.5853 15.034H95.5293C95.3427 15.3607 95.072 15.6313 94.7173 15.846C94.3627 16.0607 93.9473 16.168 93.4713 16.168C92.538 16.168 91.8427 15.874 91.3853 15.286C90.9373 14.698 90.7133 13.7787 90.7133 12.528C90.7133 11.3333 90.9933 10.428 91.5533 9.812C92.1227 9.18666 92.902 8.874 93.8913 8.874C94.2367 8.874 94.5073 8.89266 94.7033 8.93C94.9087 8.96733 95.128 9.028 95.3613 9.112V6.2H96.4813V13.592ZM93.6533 15.188C94.1293 15.188 94.5073 15.0667 94.7873 14.824C95.0673 14.572 95.2587 14.194 95.3613 13.69V10.218C95.1933 10.0873 95.002 9.994 94.7873 9.938C94.5727 9.882 94.288 9.854 93.9333 9.854C93.2893 9.854 92.7853 10.0687 92.4213 10.498C92.0573 10.918 91.8753 11.5947 91.8753 12.528C91.8753 12.9107 91.9033 13.2653 91.9593 13.592C92.0247 13.9187 92.1273 14.1987 92.2673 14.432C92.4073 14.6653 92.5893 14.852 92.8133 14.992C93.0467 15.1227 93.3267 15.188 93.6533 15.188Z" fill="#0066FF"/>
<path d="M101.943 10.078C101.663 9.98466 101.397 9.938 101.145 9.938C100.743 9.938 100.426 10.05 100.193 10.274C99.9592 10.4887 99.8145 10.764 99.7585 11.1V16H98.6386V9H99.4225L99.6325 9.854H99.6885C99.8659 9.53666 100.076 9.294 100.319 9.126C100.571 8.94866 100.888 8.86 101.271 8.86C101.541 8.86 101.845 8.90666 102.181 9L101.943 10.078Z" fill="#0066FF"/>
<path d="M103.284 9.518C103.639 9.30333 104.05 9.14466 104.516 9.042C104.992 8.93933 105.487 8.888 106 8.888C106.486 8.888 106.873 8.95333 107.162 9.084C107.461 9.21466 107.685 9.38733 107.834 9.602C107.993 9.80733 108.096 10.036 108.142 10.288C108.198 10.54 108.226 10.792 108.226 11.044C108.226 11.604 108.212 12.15 108.184 12.682C108.156 13.214 108.142 13.718 108.142 14.194C108.142 14.5393 108.156 14.866 108.184 15.174C108.212 15.482 108.264 15.7667 108.338 16.028H107.512L107.218 15.048H107.148C107.064 15.1787 106.957 15.3093 106.826 15.44C106.705 15.5613 106.556 15.6733 106.378 15.776C106.201 15.8693 105.996 15.9487 105.762 16.014C105.529 16.0793 105.263 16.112 104.964 16.112C104.666 16.112 104.386 16.0653 104.124 15.972C103.872 15.8787 103.653 15.748 103.466 15.58C103.28 15.4027 103.13 15.1927 103.018 14.95C102.916 14.7073 102.864 14.432 102.864 14.124C102.864 13.7133 102.948 13.3727 103.116 13.102C103.284 12.822 103.518 12.6027 103.816 12.444C104.124 12.276 104.488 12.1593 104.908 12.094C105.338 12.0193 105.809 11.982 106.322 11.982C106.453 11.982 106.579 11.982 106.7 11.982C106.831 11.982 106.962 11.9913 107.092 12.01C107.12 11.73 107.134 11.478 107.134 11.254C107.134 10.7407 107.032 10.3813 106.826 10.176C106.621 9.97066 106.248 9.868 105.706 9.868C105.548 9.868 105.375 9.882 105.188 9.91C105.011 9.92866 104.824 9.96133 104.628 10.008C104.442 10.0453 104.26 10.0967 104.082 10.162C103.914 10.218 103.765 10.2833 103.634 10.358L103.284 9.518ZM105.272 15.132C105.534 15.132 105.767 15.0993 105.972 15.034C106.178 14.9593 106.355 14.8707 106.504 14.768C106.654 14.656 106.775 14.5347 106.868 14.404C106.971 14.2733 107.046 14.1473 107.092 14.026V12.864C106.962 12.8547 106.826 12.85 106.686 12.85C106.556 12.8407 106.425 12.836 106.294 12.836C106.005 12.836 105.72 12.8547 105.44 12.892C105.17 12.92 104.927 12.9807 104.712 13.074C104.507 13.158 104.339 13.2793 104.208 13.438C104.087 13.5873 104.026 13.7787 104.026 14.012C104.026 14.3387 104.143 14.6093 104.376 14.824C104.61 15.0293 104.908 15.132 105.272 15.132Z" fill="#0066FF"/>
<path d="M114.878 9L116.488 13.088L116.838 14.432H116.866L117.132 13.06L118.378 9H119.442L117.09 16.154H116.544L114.71 11.534L114.444 10.386H114.402L114.122 11.548L112.358 16.154H111.812L109.376 9H110.594L111.98 13.074L112.218 14.432H112.232L112.568 13.046L114.066 9H114.878Z" fill="#0066FF"/>
<path d="M120.525 9.518C120.879 9.30333 121.29 9.14466 121.757 9.042C122.233 8.93933 122.727 8.888 123.241 8.888C123.726 8.888 124.113 8.95333 124.403 9.084C124.701 9.21466 124.925 9.38733 125.075 9.602C125.233 9.80733 125.336 10.036 125.383 10.288C125.439 10.54 125.467 10.792 125.467 11.044C125.467 11.604 125.453 12.15 125.425 12.682C125.397 13.214 125.383 13.718 125.383 14.194C125.383 14.5393 125.397 14.866 125.425 15.174C125.453 15.482 125.504 15.7667 125.579 16.028H124.753L124.459 15.048H124.389C124.305 15.1787 124.197 15.3093 124.067 15.44C123.945 15.5613 123.796 15.6733 123.619 15.776C123.441 15.8693 123.236 15.9487 123.003 16.014C122.769 16.0793 122.503 16.112 122.205 16.112C121.906 16.112 121.626 16.0653 121.365 15.972C121.113 15.8787 120.893 15.748 120.707 15.58C120.52 15.4027 120.371 15.1927 120.259 14.95C120.156 14.7073 120.105 14.432 120.105 14.124C120.105 13.7133 120.189 13.3727 120.357 13.102C120.525 12.822 120.758 12.6027 121.057 12.444C121.365 12.276 121.729 12.1593 122.149 12.094C122.578 12.0193 123.049 11.982 123.563 11.982C123.693 11.982 123.819 11.982 123.941 11.982C124.071 11.982 124.202 11.9913 124.333 12.01C124.361 11.73 124.375 11.478 124.375 11.254C124.375 10.7407 124.272 10.3813 124.067 10.176C123.861 9.97066 123.488 9.868 122.947 9.868C122.788 9.868 122.615 9.882 122.429 9.91C122.251 9.92866 122.065 9.96133 121.869 10.008C121.682 10.0453 121.5 10.0967 121.323 10.162C121.155 10.218 121.005 10.2833 120.875 10.358L120.525 9.518ZM122.513 15.132C122.774 15.132 123.007 15.0993 123.213 15.034C123.418 14.9593 123.595 14.8707 123.745 14.768C123.894 14.656 124.015 14.5347 124.109 14.404C124.211 14.2733 124.286 14.1473 124.333 14.026V12.864C124.202 12.8547 124.067 12.85 123.927 12.85C123.796 12.8407 123.665 12.836 123.535 12.836C123.245 12.836 122.961 12.8547 122.681 12.892C122.41 12.92 122.167 12.9807 121.953 13.074C121.747 13.158 121.579 13.2793 121.449 13.438C121.327 13.5873 121.267 13.7787 121.267 14.012C121.267 14.3387 121.383 14.6093 121.617 14.824C121.85 15.0293 122.149 15.132 122.513 15.132Z" fill="#0066FF"/>
<path d="M128.828 14.278C128.828 14.6047 128.884 14.838 128.996 14.978C129.108 15.118 129.267 15.188 129.472 15.188C129.593 15.188 129.724 15.1787 129.864 15.16C130.004 15.1413 130.163 15.0993 130.34 15.034L130.466 15.916C130.317 15.9907 130.107 16.0513 129.836 16.098C129.575 16.1447 129.346 16.168 129.15 16.168C128.73 16.168 128.385 16.0513 128.114 15.818C127.843 15.5753 127.708 15.1693 127.708 14.6V6.2H128.828V14.278Z" fill="#0066FF"/>
<path d="M134.75 14.096C134.75 13.816 134.666 13.5967 134.498 13.438C134.33 13.2793 134.12 13.1487 133.868 13.046C133.625 12.934 133.354 12.8313 133.056 12.738C132.766 12.6353 132.496 12.5093 132.244 12.36C132.001 12.2013 131.796 12.0007 131.628 11.758C131.46 11.5153 131.376 11.1887 131.376 10.778C131.376 10.106 131.567 9.616 131.95 9.308C132.332 8.99066 132.864 8.832 133.546 8.832C134.05 8.832 134.47 8.87866 134.806 8.972C135.151 9.056 135.45 9.15866 135.702 9.28L135.436 10.204C135.221 10.1013 134.96 10.0127 134.652 9.938C134.353 9.854 134.031 9.812 133.686 9.812C133.275 9.812 132.972 9.882 132.776 10.022C132.589 10.162 132.496 10.4047 132.496 10.75C132.496 10.9927 132.58 11.184 132.748 11.324C132.916 11.4547 133.121 11.576 133.364 11.688C133.616 11.7907 133.886 11.8933 134.176 11.996C134.474 12.0987 134.745 12.234 134.988 12.402C135.24 12.57 135.45 12.7847 135.618 13.046C135.786 13.298 135.87 13.634 135.87 14.054C135.87 14.3527 135.818 14.6327 135.716 14.894C135.622 15.1553 135.473 15.3793 135.268 15.566C135.062 15.7527 134.806 15.8973 134.498 16C134.199 16.112 133.844 16.168 133.434 16.168C132.902 16.168 132.449 16.1167 132.076 16.014C131.702 15.9113 131.39 15.79 131.138 15.65L131.474 14.698C131.688 14.8193 131.968 14.9313 132.314 15.034C132.659 15.1367 133.009 15.188 133.364 15.188C133.765 15.188 134.096 15.1087 134.358 14.95C134.619 14.7913 134.75 14.5067 134.75 14.096Z" fill="#0066FF"/>
<path d="M18.577 0H3.11536C2.28333 0 1.5011 0.324097 0.912598 0.912598C0.324097 1.5011 0 2.28333 0 3.11536C0 4.1933 0.550415 5.14471 1.38464 5.70428V3.23071C1.38464 2.08557 2.31628 1.15393 3.46161 1.15393H18.2307C19.376 1.15393 20.3077 2.08557 20.3077 3.23071V5.70667C20.4754 5.59406 20.6336 5.46423 20.7797 5.31812C21.3682 4.72961 21.6923 3.94739 21.6923 3.11536C21.6923 1.39746 20.2947 0 18.577 0Z" fill="#0066FF"/>
<path d="M18.2307 2.53839H16.1539V7.38464C16.1539 7.76697 15.8439 8.07697 15.4616 8.07697C15.0793 8.07697 14.7693 7.76697 14.7693 7.38464V2.53839H6.92303V7.38464C6.92303 7.76697 6.61304 8.07697 6.23071 8.07697C5.84839 8.07697 5.53839 7.76697 5.53839 7.38464V2.53839H3.46161C3.07928 2.53839 2.76929 2.84839 2.76929 3.23071V23.3077C2.76929 23.69 3.07928 24 3.46161 24H18.2307C18.613 24 18.923 23.69 18.923 23.3077V3.23071C18.923 2.84839 18.613 2.53839 18.2307 2.53839ZM6.69232 11.3077H7.84607V10.1539C7.84607 9.77142 8.15607 9.46161 8.53839 9.46161C8.92072 9.46161 9.23071 9.77142 9.23071 10.1539V12.6923C9.23071 12.9468 9.43781 13.1539 9.69232 13.1539C9.94684 13.1539 10.1539 12.9468 10.1539 12.6923V11.3077C10.1539 10.2898 10.9821 9.46161 12 9.46161C13.0179 9.46161 13.8461 10.2898 13.8461 11.3077H15C15.3823 11.3077 15.6923 11.6177 15.6923 12C15.6923 12.3823 15.3823 12.6923 15 12.6923H13.8461V13.8461C13.8461 14.2286 13.5363 14.5384 13.1539 14.5384C12.7714 14.5384 12.4616 14.2286 12.4616 13.8461V11.3077C12.4616 11.0532 12.2545 10.8461 12 10.8461C11.7455 10.8461 11.5384 11.0532 11.5384 11.3077V12.6923C11.5384 13.7102 10.7102 14.5384 9.69232 14.5384C8.67426 14.5384 7.84607 13.7102 7.84607 12.6923H6.69232C6.31 12.6923 6 12.3823 6 12C6 11.6177 6.31 11.3077 6.69232 11.3077ZM16.1539 18.923C16.1539 19.3054 15.8439 19.6154 15.4616 19.6154C14.9526 19.6154 14.5384 20.0295 14.5384 20.5384C14.5384 20.9207 14.2286 21.2307 13.8461 21.2307H7.84607C7.46375 21.2307 7.15393 20.9207 7.15393 20.5384C7.15393 20.0295 6.73975 19.6154 6.23071 19.6154C5.84839 19.6154 5.53839 19.3054 5.53839 18.923V16.6154C5.53839 16.233 5.84839 15.923 6.23071 15.923C6.61304 15.923 6.92303 16.233 6.92303 16.6154V18.3369C7.63971 18.5627 8.2066 19.1294 8.43237 19.8461H13.2599C13.4857 19.1294 14.0526 18.5627 14.7693 18.3369V16.6154C14.7693 16.233 15.0793 15.923 15.4616 15.923C15.8439 15.923 16.1539 16.233 16.1539 16.6154V18.923Z" fill="#0066FF"/>
</svg>
