<svg width="83" height="24" viewBox="0 0 83 24" fill="none" xmlns="http://www.w3.org/2000/svg">
<path d="M17.3046 8.19232C17.6708 8.55853 17.6708 9.15216 17.3046 9.51819L11.0153 15.8077C10.649 16.1737 10.0556 16.1737 9.68939 15.8077L6.69543 12.8135C6.32922 12.4475 6.32922 11.8539 6.69543 11.4879C7.06146 11.1216 7.65509 11.1216 8.02112 11.4879L10.3522 13.819L15.9787 8.19232C16.3449 7.82629 16.9385 7.82629 17.3046 8.19232ZM24 12C24 18.633 18.6321 24 12 24C5.367 24 0 18.6321 0 12C0 5.367 5.36792 0 12 0C18.633 0 24 5.36792 24 12ZM22.125 12C22.125 6.40338 17.5959 1.875 12 1.875C6.40338 1.875 1.875 6.40411 1.875 12C1.875 17.5966 6.40411 22.125 12 22.125C17.5966 22.125 22.125 17.5959 22.125 12Z" fill="#0066FF"/>
<path d="M37.986 16H32.19V6.2H33.352V14.964H37.986V16Z" fill="#0066FF"/>
<path d="M39.5484 9H40.6684V16H39.5484V9ZM39.3104 6.872C39.3104 6.65733 39.3804 6.47533 39.5204 6.326C39.6698 6.16733 39.8564 6.088 40.0804 6.088C40.3044 6.088 40.4958 6.16733 40.6544 6.326C40.8131 6.47533 40.8924 6.65733 40.8924 6.872C40.8924 7.08666 40.8131 7.264 40.6544 7.404C40.4958 7.544 40.3044 7.614 40.0804 7.614C39.8564 7.614 39.6698 7.544 39.5204 7.404C39.3804 7.264 39.3104 7.08666 39.3104 6.872Z" fill="#0066FF"/>
<path d="M47.8305 15.538C47.5505 15.7433 47.2192 15.8973 46.8365 16C46.4539 16.112 46.0525 16.168 45.6325 16.168C45.0912 16.168 44.6339 16.084 44.2605 15.916C43.8872 15.7387 43.5792 15.4913 43.3365 15.174C43.1032 14.8473 42.9305 14.46 42.8185 14.012C42.7159 13.5547 42.6645 13.0507 42.6645 12.5C42.6645 11.3147 42.9259 10.4093 43.4485 9.784C43.9712 9.14933 44.7225 8.832 45.7025 8.832C46.1505 8.832 46.5285 8.86933 46.8365 8.944C47.1539 9.00933 47.4385 9.10733 47.6905 9.238L47.3685 10.204C47.1539 10.0827 46.9159 9.98933 46.6545 9.924C46.3932 9.84933 46.1132 9.812 45.8145 9.812C44.4892 9.812 43.8265 10.708 43.8265 12.5C43.8265 12.8547 43.8592 13.1953 43.9245 13.522C43.9992 13.8393 44.1159 14.124 44.2745 14.376C44.4425 14.6187 44.6572 14.8147 44.9185 14.964C45.1892 15.1133 45.5205 15.188 45.9125 15.188C46.2485 15.188 46.5472 15.1367 46.8085 15.034C47.0792 14.9313 47.2985 14.8147 47.4665 14.684L47.8305 15.538Z" fill="#0066FF"/>
<path d="M54.1548 15.44C53.8748 15.664 53.5201 15.8413 53.0908 15.972C52.6708 16.1027 52.2228 16.168 51.7468 16.168C51.2148 16.168 50.7528 16.084 50.3608 15.916C49.9688 15.7387 49.6468 15.4913 49.3948 15.174C49.1428 14.8473 48.9561 14.46 48.8348 14.012C48.7135 13.564 48.6528 13.06 48.6528 12.5C48.6528 11.3053 48.9188 10.3953 49.4508 9.77C49.9828 9.14466 50.7435 8.832 51.7328 8.832C52.0501 8.832 52.3675 8.86933 52.6848 8.944C53.0021 9.00933 53.2868 9.14 53.5388 9.336C53.7908 9.532 53.9961 9.812 54.1548 10.176C54.3135 10.5307 54.3928 11.002 54.3928 11.59C54.3928 11.898 54.3648 12.2387 54.3088 12.612H49.8148C49.8148 13.0227 49.8568 13.3867 49.9408 13.704C50.0248 14.0213 50.1555 14.292 50.3328 14.516C50.5101 14.7307 50.7388 14.8987 51.0188 15.02C51.3081 15.132 51.6581 15.188 52.0688 15.188C52.3861 15.188 52.7035 15.132 53.0208 15.02C53.3381 14.908 53.5761 14.7773 53.7348 14.628L54.1548 15.44ZM51.7468 9.812C51.1961 9.812 50.7528 9.95666 50.4168 10.246C50.0901 10.5353 49.8941 11.03 49.8288 11.73H53.3008C53.3008 11.0207 53.1655 10.526 52.8948 10.246C52.6241 9.95666 52.2415 9.812 51.7468 9.812Z" fill="#0066FF"/>
<path d="M60.6482 16V12.01C60.6482 11.282 60.5408 10.736 60.3262 10.372C60.1208 9.99866 59.7382 9.812 59.1782 9.812C58.6835 9.812 58.2728 9.94733 57.9462 10.218C57.6288 10.4793 57.4048 10.8107 57.2742 11.212V16H56.1542V9H56.9382L57.1482 9.854H57.2042C57.4282 9.55533 57.7268 9.31266 58.1002 9.126C58.4828 8.93 58.9355 8.832 59.4582 8.832C59.8408 8.832 60.1768 8.87866 60.4662 8.972C60.7555 9.056 60.9935 9.21 61.1802 9.434C61.3762 9.658 61.5208 9.96133 61.6142 10.344C61.7168 10.7173 61.7682 11.1933 61.7682 11.772V16H60.6482Z" fill="#0066FF"/>
<path d="M66.8904 14.096C66.8904 13.816 66.8064 13.5967 66.6384 13.438C66.4704 13.2793 66.2604 13.1487 66.0084 13.046C65.7658 12.934 65.4951 12.8313 65.1964 12.738C64.9071 12.6353 64.6364 12.5093 64.3844 12.36C64.1418 12.2013 63.9364 12.0007 63.7684 11.758C63.6004 11.5153 63.5164 11.1887 63.5164 10.778C63.5164 10.106 63.7078 9.616 64.0904 9.308C64.4731 8.99066 65.0051 8.832 65.6864 8.832C66.1904 8.832 66.6104 8.87866 66.9464 8.972C67.2918 9.056 67.5904 9.15866 67.8424 9.28L67.5764 10.204C67.3618 10.1013 67.1004 10.0127 66.7924 9.938C66.4938 9.854 66.1718 9.812 65.8264 9.812C65.4158 9.812 65.1124 9.882 64.9164 10.022C64.7298 10.162 64.6364 10.4047 64.6364 10.75C64.6364 10.9927 64.7204 11.184 64.8884 11.324C65.0564 11.4547 65.2618 11.576 65.5044 11.688C65.7564 11.7907 66.0271 11.8933 66.3164 11.996C66.6151 12.0987 66.8858 12.234 67.1284 12.402C67.3804 12.57 67.5904 12.7847 67.7584 13.046C67.9264 13.298 68.0104 13.634 68.0104 14.054C68.0104 14.3527 67.9591 14.6327 67.8564 14.894C67.7631 15.1553 67.6138 15.3793 67.4084 15.566C67.2031 15.7527 66.9464 15.8973 66.6384 16C66.3398 16.112 65.9851 16.168 65.5744 16.168C65.0424 16.168 64.5898 16.1167 64.2164 16.014C63.8431 15.9113 63.5304 15.79 63.2784 15.65L63.6144 14.698C63.8291 14.8193 64.1091 14.9313 64.4544 15.034C64.7998 15.1367 65.1498 15.188 65.5044 15.188C65.9058 15.188 66.2371 15.1087 66.4984 14.95C66.7598 14.7913 66.8904 14.5067 66.8904 14.096Z" fill="#0066FF"/>
<path d="M74.813 15.44C74.533 15.664 74.1783 15.8413 73.749 15.972C73.329 16.1027 72.881 16.168 72.405 16.168C71.873 16.168 71.411 16.084 71.019 15.916C70.627 15.7387 70.305 15.4913 70.053 15.174C69.801 14.8473 69.6143 14.46 69.493 14.012C69.3717 13.564 69.311 13.06 69.311 12.5C69.311 11.3053 69.577 10.3953 70.109 9.77C70.641 9.14466 71.4017 8.832 72.391 8.832C72.7083 8.832 73.0257 8.86933 73.343 8.944C73.6603 9.00933 73.945 9.14 74.197 9.336C74.449 9.532 74.6543 9.812 74.813 10.176C74.9717 10.5307 75.051 11.002 75.051 11.59C75.051 11.898 75.023 12.2387 74.967 12.612H70.473C70.473 13.0227 70.515 13.3867 70.599 13.704C70.683 14.0213 70.8137 14.292 70.991 14.516C71.1683 14.7307 71.397 14.8987 71.677 15.02C71.9663 15.132 72.3163 15.188 72.727 15.188C73.0443 15.188 73.3617 15.132 73.679 15.02C73.9963 14.908 74.2343 14.7773 74.393 14.628L74.813 15.44ZM72.405 9.812C71.8543 9.812 71.411 9.95666 71.075 10.246C70.7483 10.5353 70.5523 11.03 70.487 11.73H73.959C73.959 11.0207 73.8237 10.526 73.553 10.246C73.2823 9.95666 72.8997 9.812 72.405 9.812Z" fill="#0066FF"/>
<path d="M82.1884 13.592C82.1884 14.068 82.193 14.502 82.2024 14.894C82.2117 15.2767 82.2537 15.6547 82.3284 16.028H81.5724L81.2924 15.034H81.2364C81.0497 15.3607 80.779 15.6313 80.4244 15.846C80.0697 16.0607 79.6544 16.168 79.1784 16.168C78.245 16.168 77.5497 15.874 77.0924 15.286C76.6444 14.698 76.4204 13.7787 76.4204 12.528C76.4204 11.3333 76.7004 10.428 77.2604 9.812C77.8297 9.18666 78.609 8.874 79.5984 8.874C79.9437 8.874 80.2144 8.89266 80.4104 8.93C80.6157 8.96733 80.835 9.028 81.0684 9.112V6.2H82.1884V13.592ZM79.3604 15.188C79.8364 15.188 80.2144 15.0667 80.4944 14.824C80.7744 14.572 80.9657 14.194 81.0684 13.69V10.218C80.9004 10.0873 80.709 9.994 80.4944 9.938C80.2797 9.882 79.995 9.854 79.6404 9.854C78.9964 9.854 78.4924 10.0687 78.1284 10.498C77.7644 10.918 77.5824 11.5947 77.5824 12.528C77.5824 12.9107 77.6104 13.2653 77.6664 13.592C77.7317 13.9187 77.8344 14.1987 77.9744 14.432C78.1144 14.6653 78.2964 14.852 78.5204 14.992C78.7537 15.1227 79.0337 15.188 79.3604 15.188Z" fill="#0066FF"/>
</svg>
