<?xml version="1.0" standalone="no"?>
<!DOCTYPE svg PUBLIC "-//W3C//DTD SVG 20010904//EN"
 "http://www.w3.org/TR/2001/REC-SVG-20010904/DTD/svg10.dtd">
<svg version="1.0" xmlns="http://www.w3.org/2000/svg"
 width="1027.000000pt" height="1280.000000pt" viewBox="0 0 1027.000000 1280.000000"
 preserveAspectRatio="xMidYMid meet">
<metadata>
Created by potrace 1.15, written by Peter Selinger 2001-2017
</metadata>
<g transform="translate(0.000000,1280.000000) scale(0.100000,-0.100000)"
fill="#000000" stroke="none">
<path d="M2889 12791 c-131 -42 -302 -184 -538 -446 -259 -289 -451 -535 -507
-650 -31 -63 -34 -77 -34 -161 0 -73 -4 -96 -17 -112 -10 -11 -70 -58 -133
-105 -233 -173 -392 -370 -567 -705 -49 -94 -60 -122 -42 -106 13 12 96 88
184 169 241 222 324 285 375 285 12 0 31 -15 48 -40 15 -21 35 -39 44 -40 10
0 32 25 55 61 70 111 78 122 91 127 19 6 15 -48 -6 -87 -35 -65 -138 -173
-412 -431 -374 -351 -405 -384 -419 -442 -6 -26 -11 -50 -11 -53 0 -4 109 98
243 227 134 128 268 250 299 271 72 50 119 57 184 27 103 -47 270 -35 342 25
40 33 69 39 97 21 37 -25 33 -62 -12 -104 -21 -19 -132 -84 -248 -144 -249
-130 -386 -211 -521 -309 -205 -148 -356 -297 -461 -454 -54 -80 -60 -101 -33
-115 42 -23 104 20 265 184 161 165 219 206 261 187 13 -6 24 -15 24 -20 0
-24 40 -32 88 -17 40 11 53 12 79 1 98 -41 79 -149 -41 -242 -67 -51 -86 -71
-86 -89 0 -6 16 -35 35 -63 57 -83 49 -98 -79 -146 -163 -61 -166 -81 -19
-129 90 -30 92 -56 9 -112 -61 -41 -57 -43 18 -8 77 35 100 30 104 -21 4 -59
-41 -123 -125 -176 -110 -69 -195 -159 -151 -159 37 0 103 48 159 116 33 41
64 74 70 74 5 0 9 -31 9 -70 0 -77 -24 -162 -84 -295 -54 -121 -47 -154 34
-158 l42 -2 64 217 c130 438 232 644 471 943 113 143 474 504 677 679 112 96
165 148 177 175 33 74 102 101 170 65 21 -11 38 -33 56 -72 13 -31 32 -65 41
-76 29 -32 86 -63 156 -85 80 -25 140 -27 180 -6 26 14 28 14 21 -3 -35 -83
-47 -123 -49 -162 -4 -124 107 -149 299 -69 75 31 243 130 258 152 7 11 5 38
-8 137 -3 19 -1 41 4 49 8 12 16 10 49 -13 106 -73 303 -74 372 -1 13 14 27
25 31 25 5 0 41 -29 81 -65 40 -36 83 -68 96 -72 28 -7 52 14 86 72 37 63 118
111 319 189 206 81 260 112 285 165 22 47 88 90 196 130 150 54 261 72 466 78
161 4 197 2 277 -15 188 -42 279 -97 563 -342 215 -186 256 -209 314 -178 14
7 74 69 133 138 60 68 114 125 121 128 28 9 8 -41 -57 -146 -121 -193 -128
-213 -87 -266 68 -90 143 -277 167 -421 19 -115 48 -151 151 -191 91 -35 108
-50 119 -109 5 -27 14 -54 19 -59 11 -11 116 86 126 116 9 31 -38 117 -134
244 -83 110 -104 144 -86 144 25 0 140 -76 190 -125 66 -66 107 -133 150 -239
25 -63 28 -67 37 -45 12 31 2 350 -13 411 -6 26 -22 63 -36 83 l-24 36 26 9
c16 7 41 6 71 0 96 -22 129 -53 191 -183 25 -50 56 -97 77 -116 78 -68 91 -23
41 142 -8 26 -11 47 -8 47 4 0 28 -33 54 -73 91 -141 114 -147 103 -28 -17
203 -63 404 -111 490 -13 24 -24 45 -24 47 0 2 19 -6 43 -16 95 -44 160 -13
138 65 -5 20 -29 66 -52 101 -23 36 -39 67 -36 71 20 20 237 -180 276 -255 26
-47 28 -19 5 59 -50 167 -230 426 -359 514 -45 32 -67 40 -114 43 -67 5 -102
-9 -153 -62 l-33 -34 8 106 c5 59 6 199 4 312 -6 237 -18 295 -77 384 -22 32
-86 154 -144 270 -141 286 -136 281 -398 412 -115 57 -255 123 -311 146 -172
69 -270 63 -252 -16 4 -17 8 -42 9 -56 1 -22 -3 -25 -34 -24 -20 0 -66 13
-102 28 -113 45 -228 45 -228 1 0 -8 -2 -15 -5 -15 -2 0 -47 31 -100 70 -136
98 -215 135 -285 134 -72 -1 -220 -25 -220 -36 0 -15 70 -83 274 -268 112
-102 205 -190 205 -197 1 -18 -33 -33 -74 -33 -20 0 -71 12 -113 26 -161 54
-320 159 -377 249 -44 68 -72 87 -127 87 -79 -1 -138 -39 -138 -90 0 -16 40
-106 89 -203 134 -261 157 -349 93 -349 -39 0 -180 60 -272 115 -109 67 -166
124 -173 176 -14 109 -137 138 -182 43 -31 -65 -31 -121 0 -179 15 -27 34 -63
43 -79 10 -19 16 -59 17 -115 1 -65 9 -112 34 -194 18 -59 30 -114 27 -122
-14 -37 -95 3 -125 63 -11 21 -31 78 -45 126 -14 49 -34 104 -45 122 -22 36
-155 196 -192 231 -41 37 -113 69 -209 93 -83 21 -93 21 -107 7 -14 -13 -14
-24 -4 -76 31 -159 67 -223 166 -296 36 -26 65 -51 65 -55 0 -10 -37 -20 -75
-20 -45 0 -74 25 -105 91 -42 90 -46 93 -85 69 -42 -26 -62 -25 -126 4 -78 37
-88 27 -119 -111 -6 -29 -19 -58 -27 -65 -14 -11 -21 -6 -52 32 -70 88 -119
130 -151 130 -19 0 -33 -7 -40 -19 -5 -11 -10 -82 -10 -159 0 -150 -15 -224
-51 -243 -26 -13 -36 -6 -43 36 -9 48 -42 51 -89 7 -56 -53 -71 -96 -68 -207
1 -70 -2 -106 -11 -118 -31 -42 -73 15 -168 223 -92 203 -144 266 -222 264
-56 -2 -111 -43 -164 -124 -26 -39 -53 -70 -59 -70 -12 0 -26 26 -56 100 -7
19 -14 63 -14 97 0 66 15 98 68 137 33 25 142 34 177 16 30 -16 42 -1 59 75 7
31 19 59 28 62 33 13 151 -138 198 -253 l23 -57 7 79 c3 44 12 95 19 114 11
32 16 35 50 35 59 0 79 32 74 117 -4 74 -18 97 -78 128 -48 25 -20 36 52 21
48 -10 71 -21 131 -63 15 -11 20 -10 32 6 38 51 45 239 11 291 -9 14 -34 32
-56 41 -57 23 -88 96 -57 138 17 23 57 19 176 -18 46 -14 103 -26 127 -26 55
0 67 18 48 73 -9 24 -14 81 -14 146 0 132 -14 165 -82 199 -100 50 -250 40
-485 -33 -61 -19 -119 -35 -128 -35 -10 0 -28 11 -40 24 -26 28 -85 42 -240
56 -60 6 -132 12 -160 15 -27 2 -62 1 -76 -4z"/>
<path d="M8478 9502 l-77 -87 47 -6 c101 -13 111 -32 123 -228 11 -188 13
-195 60 -238 65 -60 107 -171 77 -201 -18 -18 -127 -15 -167 6 -38 20 -54 45
-75 123 -21 76 -50 115 -131 176 -86 64 -98 79 -125 151 -55 147 -90 202 -90
141 0 -12 -16 -50 -36 -86 l-37 -65 8 -106 c8 -125 25 -177 54 -167 30 9 88
-20 105 -54 12 -22 16 -53 14 -115 -3 -97 8 -118 73 -138 48 -14 64 -32 109
-116 l35 -67 100 -40 c125 -51 156 -68 200 -106 39 -34 52 -79 36 -122 -17
-43 -51 -36 -107 23 -35 36 -68 58 -123 81 -144 59 -176 83 -289 216 -85 99
-120 133 -173 164 -54 31 -80 56 -130 122 -65 86 -129 206 -129 243 0 30 -25
49 -103 77 -79 29 -105 49 -109 86 -4 35 -38 39 -74 8 -24 -21 -28 -33 -29
-73 l0 -49 -43 -3 c-24 -2 -45 -9 -48 -17 -3 -7 15 -53 40 -103 53 -106 74
-178 57 -195 -33 -33 20 -82 101 -93 39 -6 47 -3 61 16 8 12 20 21 25 19 5 -2
32 -32 61 -66 28 -35 66 -70 84 -79 42 -22 86 -56 247 -195 193 -165 274 -225
366 -269 45 -22 84 -46 87 -54 3 -8 -5 -29 -19 -47 -13 -18 -24 -36 -24 -39 0
-4 44 -10 98 -13 116 -8 169 -21 201 -50 20 -19 22 -28 18 -76 -3 -30 -18 -79
-34 -110 -23 -45 -33 -57 -56 -59 -39 -5 -105 37 -201 126 -136 128 -146 136
-151 130 -3 -3 22 -47 57 -99 56 -85 62 -100 66 -156 4 -53 2 -64 -13 -69 -25
-10 -42 3 -109 82 -125 148 -311 455 -337 557 -6 26 -15 47 -20 47 -17 0 -44
-55 -43 -89 2 -49 81 -284 138 -406 66 -142 116 -210 208 -285 125 -102 160
-162 103 -176 -79 -20 -167 37 -292 189 -30 35 -41 34 -58 -5 -12 -29 -11 -37
7 -73 35 -68 118 -182 164 -224 24 -23 72 -54 108 -71 57 -27 75 -43 136 -120
68 -87 109 -120 148 -120 10 0 34 -10 53 -23 l34 -23 65 52 c80 65 192 126
296 160 62 21 103 27 189 30 105 3 107 2 40 -7 -149 -20 -364 -110 -497 -209
-77 -57 -152 -152 -169 -213 -16 -58 -13 -137 7 -186 l16 -41 33 20 c18 11 48
20 68 20 44 0 81 -40 150 -163 26 -47 59 -95 73 -106 26 -20 64 -28 77 -15 3
3 -9 40 -27 82 -93 218 -88 388 16 489 55 54 147 96 220 101 141 11 276 -117
359 -341 l19 -52 -5 140 c-7 203 -53 361 -122 415 -26 20 -29 47 -9 93 28 68
78 82 336 97 231 13 306 21 289 30 -27 14 -106 22 -296 29 l-193 7 -33 32
c-18 18 -42 32 -52 32 -34 0 -48 16 -41 43 8 34 61 72 132 95 35 11 59 25 59
33 0 8 -40 35 -89 61 -98 52 -106 59 -106 101 0 15 -9 41 -21 56 -24 33 -22
46 35 181 49 117 48 149 -11 274 -46 98 -48 104 -51 212 -3 78 2 155 17 256
28 191 28 257 0 292 -14 18 -27 25 -39 21 -22 -7 -64 39 -119 132 -53 89 -86
185 -106 303 -20 119 -36 144 -97 148 -56 4 -90 -21 -107 -78 l-12 -41 -102 7
-102 7 48 -51 c58 -63 60 -87 17 -209 -34 -96 -37 -133 -14 -168 13 -21 14
-28 2 -52 -16 -35 -65 -60 -87 -46 -12 8 -18 36 -23 113 -12 181 -41 263 -109
306 -55 35 -81 95 -87 202 -2 45 -7 82 -11 81 -3 0 -41 -40 -83 -87z"/>
<path d="M1033 9405 c-174 -93 -314 -219 -369 -331 -27 -55 -29 -65 -25 -149
9 -188 5 -319 -13 -385 -9 -36 -42 -118 -73 -182 l-56 -117 22 -34 c12 -19 41
-51 66 -72 54 -44 59 -71 13 -77 -17 -3 -43 0 -58 5 -61 23 -67 5 -50 -163 9
-96 2 -110 -54 -110 -41 0 -85 28 -127 80 -65 81 -97 115 -104 108 -14 -13 -7
-67 14 -109 12 -24 56 -84 97 -134 184 -222 208 -252 226 -292 20 -45 16 -73
-12 -73 -10 0 -82 58 -159 130 -152 140 -238 208 -315 247 l-49 25 81 -81
c183 -183 321 -455 323 -636 1 -58 -4 -84 -20 -115 -49 -94 -26 -105 219 -106
102 0 191 -1 198 -2 7 -1 17 -12 23 -25 19 -43 -6 -101 -76 -178 -67 -73 -100
-146 -93 -204 5 -41 19 -34 62 30 23 32 59 72 81 87 43 30 139 54 178 44 31
-7 47 -46 122 -281 61 -192 119 -328 153 -358 20 -18 20 -26 15 -160 -6 -142
9 -476 27 -637 14 -116 40 -234 50 -224 25 25 50 180 60 369 13 247 24 346 45
410 31 92 81 144 126 130 23 -8 49 -54 49 -87 0 -44 68 -168 126 -229 80 -84
185 -138 240 -125 33 9 30 17 -17 44 -55 32 -117 89 -136 126 -16 31 -55 168
-49 173 2 2 23 -38 47 -89 38 -81 44 -89 47 -64 2 16 -4 69 -13 117 -23 125
-19 128 96 75 100 -46 150 -58 239 -54 l75 3 -69 23 c-201 67 -240 128 -180
278 30 75 106 165 165 195 21 10 41 19 44 19 3 0 5 -26 5 -59 0 -44 6 -66 23
-92 60 -91 221 -98 343 -16 64 43 91 89 76 129 l-11 30 47 -7 c58 -9 90 -25
156 -79 28 -23 65 -47 81 -52 81 -29 104 -37 149 -49 26 -8 56 -21 66 -30 18
-16 19 -14 27 32 4 26 8 138 7 248 -1 181 -4 209 -26 290 -14 50 -29 98 -33
108 -5 13 -2 17 12 17 24 0 144 39 160 53 16 12 15 80 -1 132 -13 39 -13 39
-20 14 -15 -53 -74 -90 -170 -108 -48 -9 -48 -9 -112 42 -50 40 -61 53 -49 60
8 4 15 19 15 32 0 34 -48 64 -216 134 -77 32 -169 75 -205 95 -78 43 -89 44
-89 11 0 -30 -28 -50 -101 -71 -30 -9 -81 -30 -114 -49 -33 -18 -78 -35 -99
-38 -38 -6 -41 -4 -105 63 -81 86 -102 90 -163 28 -23 -24 -63 -59 -87 -79
-44 -36 -46 -36 -80 -22 -21 9 -49 13 -72 9 -33 -5 -36 -4 -32 17 5 24 -33
137 -46 137 -4 0 -12 -5 -18 -11 -17 -17 -75 -3 -120 30 -73 53 -76 71 -77
436 -1 295 -3 323 -20 357 -21 41 -45 55 -58 36 -5 -7 -7 -49 -4 -93 38 -561
-4 -802 -165 -968 -49 -51 -60 -58 -74 -47 -45 37 28 313 116 434 58 82 56
170 -6 263 -57 85 -131 132 -248 154 -68 13 -88 24 -81 44 3 7 53 50 111 96
121 96 159 141 212 255 30 64 57 101 122 169 66 68 80 88 69 96 -8 5 -20 9
-26 9 -25 0 -44 37 -44 87 0 60 -5 63 -96 63 -105 0 -130 46 -68 128 14 18 43
41 65 53 54 27 119 87 119 110 0 45 -48 44 -203 -3 -37 -11 -71 -18 -74 -14
-12 12 17 53 106 149 50 53 91 101 91 107 0 5 -12 15 -27 22 l-28 14 3 152 2
152 -22 0 c-13 0 -60 -20 -105 -45z m1435 -2814 c106 -22 201 -63 254 -110 40
-35 165 -211 150 -211 -5 0 -29 19 -52 43 l-43 42 -171 6 c-139 4 -186 10
-251 29 -61 18 -104 23 -180 23 -157 0 -222 -37 -364 -211 -43 -53 -93 -110
-110 -126 -17 -17 -31 -37 -31 -45 -1 -13 -2 -13 -11 1 -8 15 2 31 53 91 35
40 99 114 142 165 138 160 259 254 382 297 83 30 112 30 232 6z"/>
<path d="M3805 8854 c-308 -10 -610 -54 -923 -134 -162 -42 -406 -119 -400
-126 3 -2 47 9 99 25 576 180 1269 236 1889 155 477 -62 923 -193 1353 -397
75 -36 137 -63 137 -61 0 10 -363 181 -490 232 -353 141 -684 228 -1055 276
-157 21 -444 35 -610 30z"/>
<path d="M3525 8434 c-537 -22 -1001 -91 -1311 -197 -95 -32 -171 -66 -119
-53 11 3 46 12 79 20 377 97 1280 168 2161 170 457 1 589 -8 800 -55 216 -47
505 -143 635 -209 22 -11 40 -18 40 -16 0 14 -300 172 -410 216 -165 66 -299
97 -479 110 -125 8 -1244 20 -1396 14z"/>
<path d="M5880 8057 c0 -3 44 -35 98 -71 53 -37 120 -83 147 -102 l50 -36 -45
43 c-51 47 -250 180 -250 166z"/>
<path d="M5045 8036 c-38 -8 -119 -28 -178 -45 -132 -39 -254 -65 -412 -87
-100 -15 -205 -18 -630 -19 -280 -1 -548 -5 -595 -9 -47 -4 -146 -3 -220 3
-119 9 -142 14 -192 40 -109 57 -273 91 -444 91 -196 0 -266 -23 -367 -119
-49 -46 -162 -181 -190 -228 -4 -7 38 19 95 57 306 205 536 263 783 198 208
-55 506 -86 900 -95 207 -4 302 -2 365 7 106 17 139 17 273 0 196 -24 581 16
780 82 73 24 116 31 207 35 120 6 277 -8 370 -32 50 -13 53 -13 35 2 -33 26
-178 91 -241 109 -80 22 -251 27 -339 10z"/>
<path d="M5680 7887 c0 -6 249 -165 315 -201 l50 -28 -67 66 c-51 49 -90 76
-160 110 -92 44 -138 62 -138 53z"/>
<path d="M1759 7610 c-13 -10 -19 -19 -13 -20 6 0 19 9 29 20 23 26 14 26 -16
0z"/>
<path d="M2145 7620 c-11 -5 27 -6 90 -3 61 3 112 7 114 9 9 8 -185 2 -204 -6z"/>
<path d="M5345 7586 c-22 -7 -80 -36 -130 -65 -163 -93 -392 -168 -476 -155
-30 5 -41 0 -88 -41 -61 -52 -96 -69 -163 -79 -27 -4 -114 -41 -214 -92 -93
-46 -197 -93 -232 -104 -74 -23 -160 -25 -215 -6 -34 13 -37 12 -33 -3 3 -9
12 -43 20 -77 31 -120 63 -172 127 -204 49 -25 49 -35 4 -154 -19 -51 -36
-104 -37 -117 -5 -38 33 -27 152 45 185 112 208 118 236 64 23 -44 23 -158 0
-192 -23 -37 -20 -71 12 -106 19 -22 39 -33 69 -37 37 -5 51 0 111 36 37 22
75 41 83 41 8 0 30 -10 49 -21 48 -30 166 -69 207 -69 30 0 32 2 27 29 -5 23
-1 32 25 50 38 27 42 66 9 75 -13 3 -58 6 -100 6 -42 0 -79 4 -82 8 -8 14 82
109 148 157 152 108 284 150 471 149 149 0 214 -14 342 -74 100 -47 148 -79
283 -189 130 -107 164 -131 184 -131 9 0 16 7 16 15 0 11 8 10 37 -8 30 -17
59 -23 140 -27 88 -5 106 -8 124 -27 21 -20 21 -23 7 -46 -9 -13 -45 -42 -81
-66 -103 -67 -141 -143 -135 -271 l3 -65 33 58 c48 84 148 182 218 213 100 44
105 47 130 90 42 71 27 138 -43 191 -21 16 -80 94 -141 187 -151 228 -231 301
-360 326 -74 14 -171 -3 -199 -36 -13 -14 -23 -34 -23 -45 0 -26 -5 -25 -58
20 -125 105 -291 150 -467 127 -62 -8 -122 5 -110 24 14 22 69 41 148 51 138
17 177 38 177 100 0 21 7 30 33 40 43 19 243 19 275 1 20 -11 27 -11 48 3 57
37 -5 83 -127 96 -113 11 -183 54 -204 126 -6 23 23 63 56 76 10 4 7 12 -16
31 -76 66 -195 97 -270 72z"/>
<path d="M7583 7558 c3 -24 31 -126 62 -228 68 -224 95 -333 95 -382 0 -57
-19 -63 -151 -42 -126 19 -198 15 -257 -15 -68 -35 -68 -85 1 -125 63 -37 172
-66 279 -75 54 -4 104 -14 113 -21 13 -11 13 -15 -1 -39 -20 -33 -89 -81 -169
-117 -46 -21 -82 -50 -155 -125 -99 -101 -149 -139 -187 -139 -37 0 -26 -20
24 -42 65 -29 114 -19 254 48 64 31 124 54 135 52 16 -3 19 -13 22 -66 3 -54
6 -62 22 -62 35 0 97 -68 141 -153 23 -45 47 -85 53 -89 17 -11 51 28 116 136
l61 101 -7 68 c-6 62 -4 71 20 107 38 57 117 112 266 186 147 72 238 136 276
194 34 52 29 73 -21 81 -91 16 -124 38 -173 113 -98 153 -149 213 -226 265
-125 85 -170 147 -182 257 -8 64 -32 97 -67 92 -31 -4 -33 -51 -7 -162 29
-124 29 -126 20 -126 -12 0 -216 203 -284 283 -31 37 -62 67 -68 67 -7 0 -9
-15 -5 -42z"/>
<path d="M1985 7565 c-120 -50 -248 -158 -335 -285 -22 -31 -18 -29 39 20 144
125 230 194 299 241 83 55 83 59 -3 24z"/>
<path d="M10000 6574 c-17 -15 -47 -58 -66 -95 -37 -74 -63 -91 -104 -69 -12
6 -23 10 -25 8 -7 -7 -34 -157 -40 -223 -10 -107 -4 -112 115 -79 52 14 111
34 131 45 43 21 79 63 79 91 0 22 -18 60 -34 70 -6 4 22 8 62 8 41 0 72 4 72
10 0 6 -7 10 -16 10 -26 0 -119 29 -139 44 -18 13 -17 14 13 30 66 34 89 86
61 139 -24 45 -63 49 -109 11z"/>
<path d="M4925 6525 c-5 -2 -22 -6 -37 -9 -27 -6 -58 -30 -58 -46 0 -4 9 -6
19 -3 19 5 178 -12 214 -23 14 -4 15 -9 7 -19 -17 -21 -23 -106 -11 -152 14
-51 46 -76 139 -109 76 -27 157 -31 205 -10 76 31 143 152 102 183 -24 17 -22
17 77 -6 113 -26 194 -35 202 -23 15 25 -133 112 -254 150 -36 11 -104 27
-150 36 -126 23 -418 43 -455 31z"/>
<path d="M9662 6340 c0 -59 1 -62 10 -32 8 22 8 42 0 65 -9 29 -10 26 -10 -33z"/>
<path d="M8575 6272 c-51 -24 -135 -115 -169 -184 -51 -102 -27 -151 85 -169
83 -13 107 -29 114 -76 29 -202 63 -300 109 -321 21 -9 29 -7 52 10 l27 22 22
-29 c27 -33 35 -66 35 -143 0 -88 -17 -127 -92 -207 -37 -40 -68 -76 -68 -79
0 -12 48 -5 116 17 l69 24 62 114 c82 151 124 260 131 335 5 68 12 59 -93 127
-56 36 -95 95 -95 146 0 18 7 61 16 95 9 36 14 85 12 118 -4 50 -10 64 -45
105 -83 99 -198 137 -288 95z"/>
<path d="M4740 6091 c0 -5 15 -31 33 -57 68 -102 190 -154 383 -161 139 -6
213 6 398 64 103 32 122 42 137 68 22 36 25 74 5 81 -8 3 -58 -8 -112 -25
-151 -46 -214 -55 -399 -55 -185 0 -267 14 -388 68 -31 13 -57 21 -57 17z"/>
<path d="M9808 6083 c-9 -2 -28 -23 -44 -46 -23 -35 -29 -58 -36 -142 -11
-125 -32 -227 -57 -277 -21 -43 -19 -45 17 -19 15 10 104 60 197 111 289 158
393 236 383 287 -5 24 -18 21 -113 -21 -91 -40 -156 -47 -191 -18 -12 9 -35
38 -53 64 -30 45 -59 70 -78 67 -4 -1 -15 -3 -25 -6z"/>
<path d="M2645 5913 c-63 -23 -200 -34 -302 -25 -102 9 -108 1 -29 -41 86 -44
272 -16 357 54 38 31 33 34 -26 12z"/>
<path d="M7526 5890 c-26 -112 -212 -511 -341 -735 -156 -270 -394 -622 -528
-782 -96 -114 -134 -173 -151 -234 -18 -63 -19 -78 -7 -97 6 -10 18 -6 54 18
59 40 72 57 138 181 62 118 138 207 215 250 164 93 342 420 519 954 66 200
118 409 113 454 -3 24 -4 24 -12 -9z"/>
<path d="M3110 5881 c0 -55 -181 -591 -260 -771 -56 -126 -74 -228 -67 -365 3
-61 15 -141 26 -179 16 -60 17 -71 5 -83 -26 -26 -13 -134 31 -253 14 -39 16
-75 10 -285 -7 -238 -7 -240 17 -285 31 -61 70 -78 203 -90 118 -10 126 -8
186 45 81 72 204 124 252 106 31 -12 41 -34 63 -139 9 -42 22 -85 29 -95 12
-17 14 -5 14 94 0 172 27 266 85 296 17 9 48 31 70 50 61 56 149 89 345 133
114 25 188 56 203 83 33 62 -163 116 -277 76 -63 -21 -260 -19 -312 5 -40 18
-41 19 -27 41 18 28 9 53 -23 61 -14 4 -98 1 -187 -5 -309 -23 -506 21 -580
128 -42 60 -59 117 -63 216 -8 149 38 328 145 571 50 113 77 199 97 311 17 93
33 353 21 353 -3 0 -6 -9 -6 -19z"/>
<path d="M4520 5851 c-18 -5 -24 -13 -22 -27 6 -30 20 -42 108 -91 104 -58
134 -88 145 -148 19 -101 72 -162 150 -172 39 -6 42 -4 34 13 -4 10 -10 42
-12 70 -5 45 -3 53 15 58 25 8 58 -5 124 -48 61 -40 135 -60 190 -51 70 12 56
29 -67 80 -132 54 -182 83 -211 123 -88 123 -334 227 -454 193z"/>
<path d="M7754 5755 c27 -93 33 -275 11 -400 -24 -133 -55 -185 -114 -185 -74
0 -172 -68 -240 -167 -39 -57 -72 -163 -91 -297 -34 -228 -33 -226 -225 -312
-158 -70 -211 -114 -200 -166 4 -18 42 -87 85 -153 220 -341 312 -548 296
-664 l-6 -45 46 60 c78 100 192 276 223 346 45 99 49 136 17 190 -21 36 -26
58 -26 110 0 103 45 204 88 196 9 -2 24 -23 33 -48 29 -80 77 -60 159 66 64
97 101 194 107 275 5 62 4 67 -20 85 l-25 19 43 41 c64 62 79 118 72 268 -8
175 -69 399 -184 681 -42 103 -63 145 -49 100z"/>
<path d="M2614 5484 c-58 -24 -231 -54 -314 -54 -61 0 -81 -3 -78 -12 10 -29
63 -43 158 -43 87 0 101 3 161 32 58 29 119 77 108 87 -2 2 -18 -3 -35 -10z"/>
<path d="M9239 5220 c-51 -52 -85 -77 -151 -109 -46 -23 -92 -41 -101 -41 -21
0 -22 -29 -1 -78 33 -80 99 -116 137 -74 13 14 191 374 184 371 -1 0 -32 -31
-68 -69z"/>
<path d="M1392 4964 c-23 -43 -42 -132 -42 -195 0 -159 49 -304 245 -719 129
-274 207 -476 243 -630 24 -99 43 -254 37 -289 -4 -20 -33 -90 -66 -155 -35
-72 -59 -133 -59 -152 0 -34 15 -50 90 -97 48 -30 76 -93 95 -212 8 -55 20
-121 27 -147 l11 -46 51 56 c28 30 103 97 166 147 138 111 169 141 176 172 11
41 -24 106 -106 203 -96 113 -108 144 -91 245 14 86 80 223 151 317 43 56 77
130 205 435 84 203 151 370 149 372 -9 9 -54 -44 -83 -99 -17 -31 -71 -148
-120 -258 -106 -239 -134 -284 -189 -300 -57 -17 -100 -15 -149 9 -52 25 -54
39 -13 119 32 64 38 111 16 129 -7 6 -37 18 -65 27 -98 29 -253 205 -375 427
-100 181 -206 418 -256 572 -26 82 -35 94 -48 69z"/>
<path d="M3985 4966 c-39 -17 -74 -58 -127 -149 -23 -40 -54 -88 -69 -107 -53
-66 -73 -170 -34 -170 20 0 58 44 111 131 90 147 171 205 251 178 34 -11 38
-10 60 15 36 42 30 63 -19 76 -24 7 -62 18 -86 26 -51 17 -49 17 -87 0z"/>
<path d="M4395 4926 c-17 -12 -14 -20 55 -136 129 -216 319 -462 548 -713 175
-191 294 -294 515 -449 173 -120 262 -194 309 -255 10 -13 22 -23 28 -23 16 0
-120 197 -204 297 -79 94 -146 150 -223 187 -130 63 -205 141 -447 466 -88
118 -200 258 -250 310 -50 52 -124 141 -164 197 -93 132 -122 152 -167 119z"/>
<path d="M9283 4663 c-88 -246 -259 -477 -481 -651 -46 -36 -79 -68 -74 -71
40 -26 44 -150 7 -229 -13 -29 -31 -55 -40 -58 -8 -3 -15 -10 -15 -14 0 -24
180 46 244 95 46 35 60 72 52 143 -3 31 -9 91 -12 132 -9 109 -5 112 178 114
135 1 147 3 206 30 98 45 143 115 87 136 -13 5 -47 12 -74 16 -65 8 -111 36
-111 68 0 13 16 46 35 72 88 122 96 186 27 223 -19 10 -23 9 -29 -6z"/>
<path d="M8190 4394 c0 -16 67 -99 117 -144 87 -77 176 -116 256 -111 40 2
187 164 187 207 0 20 -5 24 -32 24 -18 0 -77 -9 -131 -20 -118 -24 -272 -27
-321 -6 -19 8 -44 24 -55 35 -12 12 -21 18 -21 15z"/>
<path d="M8000 4219 c-89 -92 -127 -306 -73 -415 31 -61 45 -157 45 -309 0
-221 -23 -319 -96 -408 -80 -98 -148 -253 -149 -343 -3 -122 79 -146 208 -62
110 70 309 298 374 426 12 23 30 86 41 139 28 134 57 191 134 266 35 34 72 77
81 96 20 40 31 172 21 252 l-7 54 -97 -4 c-142 -5 -234 20 -310 84 -43 36 -90
135 -98 206 -8 72 -19 74 -74 18z"/>
<path d="M5863 4023 c-13 -2 -23 -8 -23 -12 0 -4 27 -37 60 -74 34 -39 64 -83
70 -105 5 -20 21 -140 36 -267 14 -126 30 -234 34 -239 16 -16 52 82 71 194
20 117 25 314 8 373 -13 47 -63 106 -106 123 -31 13 -102 16 -150 7z"/>
<path d="M2460 3283 c-17 -22 -20 -35 -15 -63 16 -80 13 -94 -29 -114 l-40
-20 58 -52 c66 -58 130 -94 170 -94 59 0 121 56 145 132 12 36 13 37 79 45 37
4 135 8 217 7 175 0 242 -14 343 -72 63 -35 72 -37 147 -35 55 1 105 9 160 27
65 21 114 27 265 36 188 11 330 6 543 -21 78 -10 138 -10 285 -1 257 17 404
16 449 -3 46 -19 43 -21 43 20 0 69 -104 144 -182 132 -18 -3 -60 -13 -93 -23
-53 -17 -95 -19 -375 -18 -382 1 -653 26 -756 69 -51 21 -65 19 -142 -16 -86
-40 -171 -47 -306 -25 -75 13 -106 22 -128 41 -59 50 -182 64 -356 41 -68 -9
-140 -23 -159 -31 -72 -30 -160 -15 -242 41 -45 31 -55 30 -81 -3z"/>
<path d="M2646 2817 c22 -150 120 -332 207 -385 61 -38 336 -62 717 -62 296 0
267 -7 623 154 93 42 200 85 240 95 l71 18 -55 19 c-74 25 -229 23 -374 -5
-269 -51 -638 -53 -985 -5 l-105 14 -38 45 c-44 52 -83 75 -125 75 -15 0 -48
13 -73 28 -24 16 -59 33 -77 40 l-32 11 6 -42z"/>
<path d="M5985 2516 c-40 -18 -74 -57 -123 -141 -49 -85 -85 -125 -148 -165
-84 -53 -101 -39 -128 104 -20 106 -34 134 -83 175 -68 56 -161 33 -204 -49
-36 -67 -19 -119 44 -134 53 -13 36 -32 -88 -101 -44 -24 -116 -69 -159 -99
-101 -70 -156 -84 -262 -68 -102 16 -211 61 -314 130 -46 31 -93 60 -104 65
-58 23 -149 -61 -220 -203 l-44 -88 -12 29 c-26 61 -123 118 -200 119 -34 0
-59 -9 -103 -35 -154 -93 -239 -95 -303 -9 -46 64 -77 94 -95 94 -10 0 -60
-29 -111 -64 -51 -35 -120 -77 -153 -93 -58 -29 -232 -93 -254 -93 -24 0 -32
40 -22 116 8 64 14 82 39 108 53 56 64 93 36 120 -24 24 -53 19 -144 -25 -56
-27 -106 -43 -148 -48 -37 -4 -68 -14 -73 -22 -28 -44 -41 -124 -48 -304 -7
-189 -13 -216 -49 -257 -37 -44 -69 -10 -93 97 -17 79 -17 384 0 445 7 24 33
72 57 106 48 68 56 112 28 153 -16 22 -22 23 -77 17 -69 -7 -134 -36 -158 -69
-9 -12 -28 -54 -43 -93 -31 -83 -53 -115 -144 -207 -78 -81 -106 -97 -164 -97
-51 0 -64 -7 -76 -40 -11 -29 3 -76 24 -84 27 -10 83 22 197 111 117 91 212
153 234 153 29 0 24 -34 -15 -113 -48 -97 -140 -211 -187 -234 -30 -14 -40
-15 -74 -3 -32 10 -43 10 -55 1 -26 -22 -56 -118 -56 -179 0 -170 158 -584
276 -722 48 -56 59 -98 46 -177 l-9 -53 34 -5 c18 -3 49 -7 68 -10 19 -3 41
-13 50 -21 13 -14 13 -18 -1 -46 -27 -52 -3 -139 54 -201 31 -33 48 -34 79 -5
l24 22 36 -19 c20 -11 62 -54 95 -97 79 -105 159 -149 273 -152 58 -1 95 21
95 56 0 38 30 31 83 -19 29 -27 65 -58 80 -68 27 -17 30 -17 82 0 57 20 58 20
297 -17 96 -15 121 -8 253 72 157 94 210 105 258 52 53 -59 212 -56 398 8 145
51 199 54 397 26 138 -20 126 -24 222 58 76 65 140 93 238 105 113 14 122 20
122 81 0 28 5 52 13 57 6 4 51 7 99 6 85 -3 87 -2 100 24 10 20 26 29 79 42
83 21 114 41 147 98 70 119 97 141 124 107 48 -60 70 -74 119 -74 39 0 55 5
79 28 25 22 32 38 39 95 16 113 52 152 201 217 79 34 120 64 120 87 0 8 -20
23 -46 34 l-45 20 163 55 c90 31 205 75 255 99 90 42 101 52 340 283 137 131
275 263 308 292 89 78 87 74 79 161 -8 91 6 131 35 105 31 -28 47 -18 74 44
25 59 26 60 66 60 50 0 81 34 81 91 0 47 -31 85 -84 103 -69 24 -117 -8 -145
-97 -20 -59 -67 -73 -126 -37 -18 11 -41 37 -51 58 -11 24 -19 32 -22 22 -8
-25 -35 -51 -69 -65 -41 -17 -41 -34 -2 -98 39 -63 63 -127 47 -127 -6 0 -76
32 -155 71 -98 48 -148 68 -155 61 -7 -7 -7 -27 1 -62 6 -28 11 -67 11 -85 0
-33 -2 -35 -33 -35 -81 0 -114 -139 -35 -148 66 -8 48 -62 -20 -62 -56 1 -109
30 -188 104 -104 96 -113 89 -53 -43 16 -35 29 -65 29 -67 0 -1 -16 4 -35 12
-50 21 -80 18 -92 -8 -9 -21 -11 -18 -17 22 -9 61 -46 124 -75 128 -12 2 -39
-8 -60 -21 -21 -14 -70 -42 -110 -62 -69 -34 -74 -39 -99 -96 -14 -32 -29 -59
-33 -59 -9 0 -39 53 -39 67 0 5 26 36 58 69 135 142 151 253 55 382 -13 17
-27 32 -31 32 -4 0 -20 -24 -36 -53 -52 -94 -73 -117 -110 -117 -57 0 -71 27
-95 184 -31 203 -55 239 -136 202z m-3220 -677 c-25 -52 -42 -83 -39 -69 8 34
75 173 80 167 2 -2 -16 -46 -41 -98z"/>
</g>
</svg>
