<svg width="123" height="24" viewBox="0 0 123 24" fill="none" xmlns="http://www.w3.org/2000/svg">
<path d="M33.614 13.508C33.614 13.116 33.4973 12.7987 33.264 12.556C33.0307 12.304 32.7367 12.0847 32.382 11.898C32.0367 11.702 31.6587 11.52 31.248 11.352C30.8373 11.184 30.4547 10.9833 30.1 10.75C29.7547 10.5073 29.4653 10.2133 29.232 9.868C28.9987 9.51333 28.882 9.06533 28.882 8.524C28.882 7.75866 29.148 7.152 29.68 6.704C30.212 6.256 30.968 6.032 31.948 6.032C32.5173 6.032 33.0353 6.074 33.502 6.158C33.9687 6.242 34.3327 6.34933 34.594 6.48L34.244 7.502C34.0293 7.39933 33.712 7.30133 33.292 7.208C32.8813 7.11466 32.4147 7.068 31.892 7.068C31.276 7.068 30.814 7.208 30.506 7.488C30.198 7.75866 30.044 8.08066 30.044 8.454C30.044 8.818 30.1607 9.12133 30.394 9.364C30.6273 9.60666 30.9167 9.826 31.262 10.022C31.6167 10.2087 31.9993 10.3953 32.41 10.582C32.8207 10.7687 33.1987 10.988 33.544 11.24C33.8987 11.4827 34.1927 11.7767 34.426 12.122C34.6593 12.4673 34.776 12.8967 34.776 13.41C34.776 13.83 34.7013 14.208 34.552 14.544C34.4027 14.88 34.1833 15.1693 33.894 15.412C33.6047 15.6547 33.2547 15.8413 32.844 15.972C32.4333 16.1027 31.9667 16.168 31.444 16.168C30.744 16.168 30.1653 16.112 29.708 16C29.2507 15.8973 28.896 15.7807 28.644 15.65L29.036 14.6C29.2507 14.7213 29.568 14.8427 29.988 14.964C30.408 15.076 30.8793 15.132 31.402 15.132C31.71 15.132 31.9993 15.104 32.27 15.048C32.5407 14.9827 32.774 14.8847 32.97 14.754C33.166 14.614 33.32 14.4413 33.432 14.236C33.5533 14.0307 33.614 13.788 33.614 13.508Z" fill="#0066FF"/>
<path d="M41.6255 15.44C41.3455 15.664 40.9908 15.8413 40.5615 15.972C40.1415 16.1027 39.6935 16.168 39.2175 16.168C38.6855 16.168 38.2235 16.084 37.8315 15.916C37.4395 15.7387 37.1175 15.4913 36.8655 15.174C36.6135 14.8473 36.4268 14.46 36.3055 14.012C36.1842 13.564 36.1235 13.06 36.1235 12.5C36.1235 11.3053 36.3895 10.3953 36.9215 9.77C37.4535 9.14466 38.2142 8.832 39.2035 8.832C39.5208 8.832 39.8382 8.86933 40.1555 8.944C40.4728 9.00933 40.7575 9.14 41.0095 9.336C41.2615 9.532 41.4668 9.812 41.6255 10.176C41.7842 10.5307 41.8635 11.002 41.8635 11.59C41.8635 11.898 41.8355 12.2387 41.7795 12.612H37.2855C37.2855 13.0227 37.3275 13.3867 37.4115 13.704C37.4955 14.0213 37.6262 14.292 37.8035 14.516C37.9808 14.7307 38.2095 14.8987 38.4895 15.02C38.7788 15.132 39.1288 15.188 39.5395 15.188C39.8568 15.188 40.1742 15.132 40.4915 15.02C40.8088 14.908 41.0468 14.7773 41.2055 14.628L41.6255 15.44ZM39.2175 9.812C38.6668 9.812 38.2235 9.95666 37.8875 10.246C37.5608 10.5353 37.3648 11.03 37.2995 11.73H40.7715C40.7715 11.0207 40.6362 10.526 40.3655 10.246C40.0948 9.95666 39.7122 9.812 39.2175 9.812Z" fill="#0066FF"/>
<path d="M48.2485 15.538C47.9685 15.7433 47.6371 15.8973 47.2545 16C46.8718 16.112 46.4705 16.168 46.0505 16.168C45.5091 16.168 45.0518 16.084 44.6785 15.916C44.3051 15.7387 43.9971 15.4913 43.7545 15.174C43.5211 14.8473 43.3485 14.46 43.2365 14.012C43.1338 13.5547 43.0825 13.0507 43.0825 12.5C43.0825 11.3147 43.3438 10.4093 43.8665 9.784C44.3891 9.14933 45.1405 8.832 46.1205 8.832C46.5685 8.832 46.9465 8.86933 47.2545 8.944C47.5718 9.00933 47.8565 9.10733 48.1085 9.238L47.7865 10.204C47.5718 10.0827 47.3338 9.98933 47.0725 9.924C46.8111 9.84933 46.5311 9.812 46.2325 9.812C44.9071 9.812 44.2445 10.708 44.2445 12.5C44.2445 12.8547 44.2771 13.1953 44.3425 13.522C44.4171 13.8393 44.5338 14.124 44.6925 14.376C44.8605 14.6187 45.0751 14.8147 45.3365 14.964C45.6071 15.1133 45.9385 15.188 46.3305 15.188C46.6665 15.188 46.9651 15.1367 47.2265 15.034C47.4971 14.9313 47.7165 14.8147 47.8845 14.684L48.2485 15.538Z" fill="#0066FF"/>
<path d="M50.7989 9V12.99C50.7989 13.354 50.8176 13.676 50.8549 13.956C50.9016 14.2267 50.9762 14.4553 51.0789 14.642C51.1816 14.8193 51.3216 14.9547 51.4989 15.048C51.6762 15.1413 51.9002 15.188 52.1709 15.188C52.4229 15.188 52.6469 15.1507 52.8429 15.076C53.0389 14.992 53.2116 14.88 53.3609 14.74C53.5196 14.6 53.6549 14.4413 53.7669 14.264C53.8882 14.0773 53.9862 13.8813 54.0609 13.676V9H55.1809V14.012C55.1809 14.348 55.1902 14.698 55.2089 15.062C55.2369 15.4167 55.2789 15.7293 55.3349 16H54.5649L54.2849 14.894H54.2149C54.0002 15.258 53.7109 15.5613 53.3469 15.804C52.9829 16.0467 52.5209 16.168 51.9609 16.168C51.5876 16.168 51.2562 16.1213 50.9669 16.028C50.6869 15.944 50.4489 15.79 50.2529 15.566C50.0662 15.342 49.9216 15.0433 49.8189 14.67C49.7256 14.2873 49.6789 13.8067 49.6789 13.228V9H50.7989Z" fill="#0066FF"/>
<path d="M60.6418 10.078C60.3618 9.98466 60.0958 9.938 59.8438 9.938C59.4424 9.938 59.1251 10.05 58.8918 10.274C58.6584 10.4887 58.5138 10.764 58.4578 11.1V16H57.3378V9H58.1218L58.3318 9.854H58.3878C58.5651 9.53666 58.7751 9.294 59.0178 9.126C59.2698 8.94866 59.5871 8.86 59.9698 8.86C60.2404 8.86 60.5438 8.90666 60.8798 9L60.6418 10.078Z" fill="#0066FF"/>
<path d="M67.2056 15.44C66.9256 15.664 66.5709 15.8413 66.1416 15.972C65.7216 16.1027 65.2736 16.168 64.7976 16.168C64.2656 16.168 63.8036 16.084 63.4116 15.916C63.0196 15.7387 62.6976 15.4913 62.4456 15.174C62.1936 14.8473 62.0069 14.46 61.8856 14.012C61.7642 13.564 61.7036 13.06 61.7036 12.5C61.7036 11.3053 61.9696 10.3953 62.5016 9.77C63.0336 9.14466 63.7942 8.832 64.7836 8.832C65.1009 8.832 65.4182 8.86933 65.7356 8.944C66.0529 9.00933 66.3376 9.14 66.5896 9.336C66.8416 9.532 67.0469 9.812 67.2056 10.176C67.3642 10.5307 67.4436 11.002 67.4436 11.59C67.4436 11.898 67.4156 12.2387 67.3596 12.612H62.8656C62.8656 13.0227 62.9076 13.3867 62.9916 13.704C63.0756 14.0213 63.2062 14.292 63.3836 14.516C63.5609 14.7307 63.7896 14.8987 64.0696 15.02C64.3589 15.132 64.7089 15.188 65.1196 15.188C65.4369 15.188 65.7542 15.132 66.0716 15.02C66.3889 14.908 66.6269 14.7773 66.7856 14.628L67.2056 15.44ZM64.7976 9.812C64.2469 9.812 63.8036 9.95666 63.4676 10.246C63.1409 10.5353 62.9449 11.03 62.8796 11.73H66.3516C66.3516 11.0207 66.2162 10.526 65.9456 10.246C65.6749 9.95666 65.2922 9.812 64.7976 9.812Z" fill="#0066FF"/>
<path d="M69.7789 13.382C69.7789 13.0087 69.8443 12.654 69.9749 12.318C70.1056 11.9727 70.283 11.6553 70.507 11.366C70.731 11.0767 70.983 10.8107 71.263 10.568C71.5523 10.3253 71.851 10.1107 72.159 9.924C71.935 9.588 71.7389 9.252 71.5709 8.916C71.4123 8.58 71.333 8.216 71.333 7.824C71.333 7.6 71.3703 7.38066 71.445 7.166C71.5196 6.95133 71.6363 6.76 71.7949 6.592C71.9629 6.424 72.1729 6.28866 72.4249 6.186C72.6863 6.08333 72.9989 6.032 73.3629 6.032C73.7456 6.032 74.0676 6.08333 74.3289 6.186C74.5903 6.27933 74.8003 6.40533 74.959 6.564C75.1176 6.72266 75.2296 6.9 75.2949 7.096C75.3696 7.292 75.4069 7.49266 75.4069 7.698C75.4069 8.09 75.253 8.496 74.945 8.916C74.6463 9.32666 74.1703 9.72333 73.5169 10.106C73.6663 10.3767 73.839 10.6567 74.035 10.946C74.2403 11.226 74.455 11.506 74.679 11.786C74.903 12.066 75.1316 12.346 75.3649 12.626C75.5983 12.8967 75.8316 13.1487 76.0649 13.382C76.1676 13.27 76.2703 13.13 76.373 12.962C76.4756 12.7847 76.5736 12.6027 76.667 12.416C76.7696 12.22 76.8583 12.0193 76.9329 11.814C77.0169 11.6087 77.0916 11.4127 77.1569 11.226L78.0249 11.632C77.9689 11.7907 77.8896 11.982 77.7869 12.206C77.6843 12.4207 77.5676 12.6447 77.437 12.878C77.3156 13.102 77.1896 13.3213 77.0589 13.536C76.9283 13.7413 76.8069 13.914 76.695 14.054C76.8909 14.2407 77.0683 14.404 77.227 14.544C77.3856 14.6747 77.5303 14.7913 77.6609 14.894C77.8009 14.9873 77.9316 15.076 78.053 15.16C78.1836 15.2347 78.3143 15.3093 78.445 15.384L77.7449 16.168C77.2503 15.9253 76.6856 15.4913 76.0509 14.866C75.8829 15.034 75.6963 15.1973 75.4909 15.356C75.2949 15.5053 75.071 15.6407 74.819 15.762C74.567 15.8833 74.287 15.9813 73.979 16.056C73.6803 16.1307 73.349 16.168 72.985 16.168C72.5463 16.168 72.1309 16.1073 71.7389 15.986C71.3563 15.8647 71.0203 15.6873 70.7309 15.454C70.4416 15.2113 70.2083 14.9173 70.0309 14.572C69.8629 14.2267 69.7789 13.83 69.7789 13.382ZM75.3929 14.166C75.1223 13.8953 74.8563 13.6013 74.5949 13.284C74.3336 12.9667 74.0816 12.6493 73.839 12.332C73.6056 12.0147 73.3863 11.7113 73.181 11.422C72.9849 11.1233 72.8169 10.862 72.6769 10.638C72.4249 10.8247 72.1916 11.016 71.9769 11.212C71.7623 11.408 71.571 11.618 71.403 11.842C71.2443 12.0567 71.1183 12.29 71.0249 12.542C70.9409 12.794 70.8989 13.0647 70.8989 13.354C70.8989 13.6433 70.9596 13.9047 71.0809 14.138C71.2023 14.362 71.3656 14.5533 71.5709 14.712C71.7856 14.8613 72.0283 14.978 72.299 15.062C72.5696 15.146 72.8543 15.188 73.153 15.188C73.3863 15.188 73.6103 15.16 73.825 15.104C74.049 15.0387 74.2589 14.9593 74.4549 14.866C74.6509 14.7727 74.8283 14.6653 74.9869 14.544C75.1549 14.4227 75.2903 14.2967 75.3929 14.166ZM72.4249 7.824C72.4249 8.104 72.4809 8.384 72.5929 8.664C72.7143 8.93466 72.8683 9.20533 73.055 9.476C73.5496 9.15866 73.8903 8.86933 74.077 8.608C74.273 8.34666 74.3709 8.118 74.3709 7.922C74.3709 7.62333 74.2963 7.38066 74.1469 7.194C74.0069 7.00733 73.7596 6.914 73.4049 6.914C73.0689 6.914 72.8216 6.998 72.6629 7.166C72.5043 7.334 72.4249 7.55333 72.4249 7.824Z" fill="#0066FF"/>
<path d="M87.0473 7.236H83.9953V16H82.8333V7.236H79.7813V6.2H87.0473V7.236Z" fill="#0066FF"/>
<path d="M90.2004 10.078C89.9204 9.98466 89.6544 9.938 89.4024 9.938C89.001 9.938 88.6837 10.05 88.4504 10.274C88.217 10.4887 88.0724 10.764 88.0164 11.1V16H86.8964V9H87.6804L87.8904 9.854H87.9464C88.1237 9.53666 88.3337 9.294 88.5764 9.126C88.8284 8.94866 89.1457 8.86 89.5284 8.86C89.799 8.86 90.1024 8.90666 90.4384 9L90.2004 10.078Z" fill="#0066FF"/>
<path d="M92.6622 9V12.99C92.6622 13.354 92.6808 13.676 92.7182 13.956C92.7648 14.2267 92.8395 14.4553 92.9422 14.642C93.0448 14.8193 93.1848 14.9547 93.3622 15.048C93.5395 15.1413 93.7635 15.188 94.0342 15.188C94.2862 15.188 94.5102 15.1507 94.7062 15.076C94.9022 14.992 95.0748 14.88 95.2242 14.74C95.3828 14.6 95.5182 14.4413 95.6302 14.264C95.7515 14.0773 95.8495 13.8813 95.9242 13.676V9H97.0442V14.012C97.0442 14.348 97.0535 14.698 97.0722 15.062C97.1002 15.4167 97.1422 15.7293 97.1982 16H96.4282L96.1482 14.894H96.0782C95.8635 15.258 95.5742 15.5613 95.2102 15.804C94.8462 16.0467 94.3842 16.168 93.8242 16.168C93.4508 16.168 93.1195 16.1213 92.8302 16.028C92.5502 15.944 92.3122 15.79 92.1162 15.566C91.9295 15.342 91.7848 15.0433 91.6822 14.67C91.5888 14.2873 91.5422 13.8067 91.5422 13.228V9H92.6622Z" fill="#0066FF"/>
<path d="M102.281 14.096C102.281 13.816 102.197 13.5967 102.029 13.438C101.861 13.2793 101.651 13.1487 101.399 13.046C101.156 12.934 100.886 12.8313 100.587 12.738C100.298 12.6353 100.027 12.5093 99.775 12.36C99.5324 12.2013 99.3271 12.0007 99.159 11.758C98.991 11.5153 98.907 11.1887 98.907 10.778C98.907 10.106 99.0984 9.616 99.481 9.308C99.8637 8.99066 100.396 8.832 101.077 8.832C101.581 8.832 102.001 8.87866 102.337 8.972C102.682 9.056 102.981 9.15866 103.233 9.28L102.967 10.204C102.752 10.1013 102.491 10.0127 102.183 9.938C101.884 9.854 101.562 9.812 101.217 9.812C100.806 9.812 100.503 9.882 100.307 10.022C100.12 10.162 100.027 10.4047 100.027 10.75C100.027 10.9927 100.111 11.184 100.279 11.324C100.447 11.4547 100.652 11.576 100.895 11.688C101.147 11.7907 101.418 11.8933 101.707 11.996C102.006 12.0987 102.276 12.234 102.519 12.402C102.771 12.57 102.981 12.7847 103.149 13.046C103.317 13.298 103.401 13.634 103.401 14.054C103.401 14.3527 103.35 14.6327 103.247 14.894C103.154 15.1553 103.004 15.3793 102.799 15.566C102.594 15.7527 102.337 15.8973 102.029 16C101.73 16.112 101.376 16.168 100.965 16.168C100.433 16.168 99.9804 16.1167 99.607 16.014C99.2337 15.9113 98.921 15.79 98.669 15.65L99.0051 14.698C99.2197 14.8193 99.4997 14.9313 99.845 15.034C100.19 15.1367 100.54 15.188 100.895 15.188C101.296 15.188 101.628 15.1087 101.889 14.95C102.15 14.7913 102.281 14.5067 102.281 14.096Z" fill="#0066FF"/>
<path d="M104.17 9H105.262V7.614L106.382 7.292V9H108.286V9.98H106.382V13.858C106.382 14.3433 106.442 14.6887 106.564 14.894C106.685 15.09 106.89 15.188 107.18 15.188C107.422 15.188 107.628 15.1647 107.796 15.118C107.964 15.062 108.15 14.992 108.356 14.908L108.608 15.762C108.356 15.8833 108.08 15.9813 107.782 16.056C107.483 16.1307 107.161 16.168 106.816 16.168C106.246 16.168 105.845 16.0093 105.612 15.692C105.378 15.3653 105.262 14.824 105.262 14.068V9.98H104.17V9Z" fill="#0066FF"/>
<path d="M114.797 15.44C114.517 15.664 114.163 15.8413 113.733 15.972C113.313 16.1027 112.865 16.168 112.389 16.168C111.857 16.168 111.395 16.084 111.003 15.916C110.611 15.7387 110.289 15.4913 110.037 15.174C109.785 14.8473 109.599 14.46 109.477 14.012C109.356 13.564 109.295 13.06 109.295 12.5C109.295 11.3053 109.561 10.3953 110.093 9.77C110.625 9.14466 111.386 8.832 112.375 8.832C112.693 8.832 113.01 8.86933 113.327 8.944C113.645 9.00933 113.929 9.14 114.181 9.336C114.433 9.532 114.639 9.812 114.797 10.176C114.956 10.5307 115.035 11.002 115.035 11.59C115.035 11.898 115.007 12.2387 114.951 12.612H110.457C110.457 13.0227 110.499 13.3867 110.583 13.704C110.667 14.0213 110.798 14.292 110.975 14.516C111.153 14.7307 111.381 14.8987 111.661 15.02C111.951 15.132 112.301 15.188 112.711 15.188C113.029 15.188 113.346 15.132 113.663 15.02C113.981 14.908 114.219 14.7773 114.377 14.628L114.797 15.44ZM112.389 9.812C111.839 9.812 111.395 9.95666 111.059 10.246C110.733 10.5353 110.537 11.03 110.471 11.73H113.943C113.943 11.0207 113.808 10.526 113.537 10.246C113.267 9.95666 112.884 9.812 112.389 9.812Z" fill="#0066FF"/>
<path d="M122.173 13.592C122.173 14.068 122.177 14.502 122.187 14.894C122.196 15.2767 122.238 15.6547 122.313 16.028H121.557L121.277 15.034H121.221C121.034 15.3607 120.763 15.6313 120.409 15.846C120.054 16.0607 119.639 16.168 119.163 16.168C118.229 16.168 117.534 15.874 117.077 15.286C116.629 14.698 116.405 13.7787 116.405 12.528C116.405 11.3333 116.685 10.428 117.245 9.812C117.814 9.18666 118.593 8.874 119.583 8.874C119.928 8.874 120.199 8.89266 120.395 8.93C120.6 8.96733 120.819 9.028 121.053 9.112V6.2H122.173V13.592ZM119.345 15.188C119.821 15.188 120.199 15.0667 120.479 14.824C120.759 14.572 120.95 14.194 121.053 13.69V10.218C120.885 10.0873 120.693 9.994 120.479 9.938C120.264 9.882 119.979 9.854 119.625 9.854C118.981 9.854 118.477 10.0687 118.113 10.498C117.749 10.918 117.567 11.5947 117.567 12.528C117.567 12.9107 117.595 13.2653 117.651 13.592C117.716 13.9187 117.819 14.1987 117.959 14.432C118.099 14.6653 118.281 14.852 118.505 14.992C118.738 15.1227 119.018 15.188 119.345 15.188Z" fill="#0066FF"/>
<path d="M17.138 9.6922H16.6703V7.5035C16.6703 3.45533 13.4578 0.0736667 9.4426 0.00147925C9.33289 -0.000493083 9.11366 -0.000493083 9.004 0.00147925C4.98867 0.0736667 1.77623 3.45533 1.77623 7.5035V9.6922H1.30854C0.587854 9.6922 0 10.4359 0 11.3543V22.3319C0 23.2494 0.587854 24 1.30859 24H17.138C17.8586 24 18.4466 23.2494 18.4466 22.3319V11.3543C18.4466 10.4359 17.8587 9.6922 17.138 9.6922ZM10.7063 16.832V20.149C10.7063 20.5288 10.3883 20.8503 10.0082 20.8503H8.43848C8.05832 20.8503 7.74033 20.5288 7.74033 20.149V16.832C7.37165 16.4691 7.15701 15.9673 7.15701 15.4122C7.15701 14.3602 7.97015 13.4563 9.00405 13.4145C9.11361 13.4101 9.33308 13.4101 9.44265 13.4145C10.4765 13.4563 11.2897 14.3602 11.2897 15.4122C11.2896 15.9673 11.075 16.4691 10.7063 16.832ZM13.588 9.6922H9.4426H9.004H4.85855V7.5035C4.85855 5.09207 6.81826 3.09819 9.22327 3.09819C11.6283 3.09819 13.5881 5.09207 13.5881 7.5035V9.6922H13.588Z" fill="#0066FF"/>
</svg>
