<svg width="120" height="24" viewBox="0 0 120 24" fill="none" xmlns="http://www.w3.org/2000/svg">
<path d="M34.722 9.42L34.862 7.95H34.792L34.26 9.294L31.712 13.718H31.362L28.66 9.28L28.156 7.95H28.086L28.282 9.406V16H27.19V6.2H28.058L31.124 11.212L31.586 12.304H31.614L32.048 11.184L34.974 6.2H35.884V16H34.722V9.42Z" fill="#0066FF"/>
<path d="M37.7602 12.5C37.7602 11.3147 38.0216 10.4093 38.5442 9.784C39.0762 9.14933 39.8369 8.832 40.8262 8.832C41.3489 8.832 41.8016 8.92066 42.1842 9.098C42.5762 9.266 42.8982 9.51333 43.1502 9.84C43.4022 10.1573 43.5889 10.5447 43.7102 11.002C43.8316 11.45 43.8922 11.9493 43.8922 12.5C43.8922 13.6853 43.6262 14.5953 43.0942 15.23C42.5716 15.8553 41.8156 16.168 40.8262 16.168C40.3036 16.168 39.8462 16.084 39.4542 15.916C39.0716 15.7387 38.7542 15.4913 38.5022 15.174C38.2502 14.8473 38.0636 14.46 37.9422 14.012C37.8209 13.5547 37.7602 13.0507 37.7602 12.5ZM38.9222 12.5C38.9222 12.8547 38.9549 13.1953 39.0202 13.522C39.0949 13.8487 39.2069 14.1333 39.3562 14.376C39.5056 14.6187 39.7016 14.8147 39.9442 14.964C40.1869 15.1133 40.4809 15.188 40.8262 15.188C42.0956 15.1973 42.7302 14.3013 42.7302 12.5C42.7302 12.136 42.6929 11.7907 42.6182 11.464C42.5529 11.1373 42.4456 10.8527 42.2962 10.61C42.1469 10.3673 41.9509 10.176 41.7082 10.036C41.4656 9.88666 41.1716 9.812 40.8262 9.812C39.5569 9.80266 38.9222 10.6987 38.9222 12.5Z" fill="#0066FF"/>
<path d="M45.6581 6.2H46.7781V9.686H46.8341C47.0487 9.41533 47.3194 9.20533 47.6461 9.056C47.9821 8.90666 48.3461 8.832 48.7381 8.832C49.6434 8.832 50.3201 9.12133 50.7681 9.7C51.2254 10.2787 51.4541 11.1747 51.4541 12.388C51.4541 13.6107 51.1554 14.5393 50.5581 15.174C49.9607 15.8087 49.1207 16.126 48.0381 16.126C47.5154 16.126 47.0394 16.07 46.6101 15.958C46.1901 15.846 45.8727 15.7247 45.6581 15.594V6.2ZM48.5421 9.812C48.0754 9.812 47.6974 9.94266 47.4081 10.204C47.1187 10.4653 46.9087 10.834 46.7781 11.31V14.838C46.9554 14.9407 47.1701 15.02 47.4221 15.076C47.6741 15.1227 47.9354 15.146 48.2061 15.146C48.8407 15.146 49.3447 14.922 49.7181 14.474C50.1007 14.026 50.2921 13.326 50.2921 12.374C50.2921 12.01 50.2594 11.6693 50.1941 11.352C50.1287 11.0347 50.0261 10.764 49.8861 10.54C49.7461 10.316 49.5641 10.1387 49.3401 10.008C49.1254 9.87733 48.8594 9.812 48.5421 9.812Z" fill="#0066FF"/>
<path d="M53.4566 9H54.5766V16H53.4566V9ZM53.2186 6.872C53.2186 6.65733 53.2886 6.47533 53.4286 6.326C53.578 6.16733 53.7646 6.088 53.9886 6.088C54.2126 6.088 54.404 6.16733 54.5626 6.326C54.7213 6.47533 54.8006 6.65733 54.8006 6.872C54.8006 7.08666 54.7213 7.264 54.5626 7.404C54.404 7.544 54.2126 7.614 53.9886 7.614C53.7646 7.614 53.578 7.544 53.4286 7.404C53.2886 7.264 53.2186 7.08666 53.2186 6.872Z" fill="#0066FF"/>
<path d="M58.2107 14.278C58.2107 14.6047 58.2667 14.838 58.3787 14.978C58.4907 15.118 58.6494 15.188 58.8547 15.188C58.9761 15.188 59.1067 15.1787 59.2467 15.16C59.3867 15.1413 59.5454 15.0993 59.7227 15.034L59.8487 15.916C59.6994 15.9907 59.4894 16.0513 59.2187 16.098C58.9574 16.1447 58.7287 16.168 58.5327 16.168C58.1127 16.168 57.7674 16.0513 57.4967 15.818C57.2261 15.5753 57.0907 15.1693 57.0907 14.6V6.2H58.2107V14.278Z" fill="#0066FF"/>
<path d="M66.1626 15.44C65.8826 15.664 65.5279 15.8413 65.0986 15.972C64.6786 16.1027 64.2306 16.168 63.7546 16.168C63.2226 16.168 62.7606 16.084 62.3686 15.916C61.9766 15.7387 61.6546 15.4913 61.4026 15.174C61.1506 14.8473 60.9639 14.46 60.8426 14.012C60.7213 13.564 60.6606 13.06 60.6606 12.5C60.6606 11.3053 60.9266 10.3953 61.4586 9.77C61.9906 9.14466 62.7513 8.832 63.7406 8.832C64.0579 8.832 64.3753 8.86933 64.6926 8.944C65.0099 9.00933 65.2946 9.14 65.5466 9.336C65.7986 9.532 66.0039 9.812 66.1626 10.176C66.3213 10.5307 66.4006 11.002 66.4006 11.59C66.4006 11.898 66.3726 12.2387 66.3166 12.612H61.8226C61.8226 13.0227 61.8646 13.3867 61.9486 13.704C62.0326 14.0213 62.1633 14.292 62.3406 14.516C62.5179 14.7307 62.7466 14.8987 63.0266 15.02C63.3159 15.132 63.6659 15.188 64.0766 15.188C64.3939 15.188 64.7113 15.132 65.0286 15.02C65.3459 14.908 65.5839 14.7773 65.7426 14.628L66.1626 15.44ZM63.7546 9.812C63.2039 9.812 62.7606 9.95666 62.4246 10.246C62.0979 10.5353 61.9019 11.03 61.8366 11.73H65.3086C65.3086 11.0207 65.1733 10.526 64.9026 10.246C64.6319 9.95666 64.2493 9.812 63.7546 9.812Z" fill="#0066FF"/>
<path d="M72.0064 6.2H77.3404V7.236H73.1684V10.582H77.0604V11.618H73.1684V16H72.0064V6.2Z" fill="#0066FF"/>
<path d="M82.4308 10.078C82.1508 9.98466 81.8848 9.938 81.6328 9.938C81.2315 9.938 80.9142 10.05 80.6808 10.274C80.4475 10.4887 80.3028 10.764 80.2468 11.1V16H79.1268V9H79.9108L80.1208 9.854H80.1768C80.3542 9.53666 80.5642 9.294 80.8068 9.126C81.0588 8.94866 81.3762 8.86 81.7588 8.86C82.0295 8.86 82.3328 8.90666 82.6688 9L82.4308 10.078Z" fill="#0066FF"/>
<path d="M84.1226 9H85.2426V16H84.1226V9ZM83.8846 6.872C83.8846 6.65733 83.9546 6.47533 84.0946 6.326C84.244 6.16733 84.4306 6.088 84.6546 6.088C84.8786 6.088 85.07 6.16733 85.2286 6.326C85.3873 6.47533 85.4666 6.65733 85.4666 6.872C85.4666 7.08666 85.3873 7.264 85.2286 7.404C85.07 7.544 84.8786 7.614 84.6546 7.614C84.4306 7.614 84.244 7.544 84.0946 7.404C83.9546 7.264 83.8846 7.08666 83.8846 6.872Z" fill="#0066FF"/>
<path d="M92.7407 15.44C92.4607 15.664 92.1061 15.8413 91.6767 15.972C91.2567 16.1027 90.8087 16.168 90.3327 16.168C89.8007 16.168 89.3387 16.084 88.9467 15.916C88.5547 15.7387 88.2327 15.4913 87.9807 15.174C87.7287 14.8473 87.5421 14.46 87.4207 14.012C87.2994 13.564 87.2387 13.06 87.2387 12.5C87.2387 11.3053 87.5047 10.3953 88.0367 9.77C88.5687 9.14466 89.3294 8.832 90.3187 8.832C90.6361 8.832 90.9534 8.86933 91.2707 8.944C91.5881 9.00933 91.8727 9.14 92.1247 9.336C92.3767 9.532 92.5821 9.812 92.7407 10.176C92.8994 10.5307 92.9787 11.002 92.9787 11.59C92.9787 11.898 92.9507 12.2387 92.8947 12.612H88.4007C88.4007 13.0227 88.4427 13.3867 88.5267 13.704C88.6107 14.0213 88.7414 14.292 88.9187 14.516C89.0961 14.7307 89.3247 14.8987 89.6047 15.02C89.8941 15.132 90.2441 15.188 90.6547 15.188C90.9721 15.188 91.2894 15.132 91.6067 15.02C91.9241 14.908 92.1621 14.7773 92.3207 14.628L92.7407 15.44ZM90.3327 9.812C89.7821 9.812 89.3387 9.95666 89.0027 10.246C88.6761 10.5353 88.4801 11.03 88.4147 11.73H91.8867C91.8867 11.0207 91.7514 10.526 91.4807 10.246C91.2101 9.95666 90.8274 9.812 90.3327 9.812Z" fill="#0066FF"/>
<path d="M99.2341 16V12.01C99.2341 11.282 99.1268 10.736 98.9121 10.372C98.7068 9.99866 98.3241 9.812 97.7641 9.812C97.2694 9.812 96.8588 9.94733 96.5321 10.218C96.2148 10.4793 95.9908 10.8107 95.8601 11.212V16H94.7401V9H95.5241L95.7341 9.854H95.7901C96.0141 9.55533 96.3128 9.31266 96.6861 9.126C97.0688 8.93 97.5214 8.832 98.0441 8.832C98.4268 8.832 98.7628 8.87866 99.0521 8.972C99.3414 9.056 99.5794 9.21 99.7661 9.434C99.9621 9.658 100.107 9.96133 100.2 10.344C100.303 10.7173 100.354 11.1933 100.354 11.772V16H99.2341Z" fill="#0066FF"/>
<path d="M107.772 13.592C107.772 14.068 107.777 14.502 107.786 14.894C107.796 15.2767 107.838 15.6547 107.912 16.028H107.156L106.876 15.034H106.82C106.634 15.3607 106.363 15.6313 106.008 15.846C105.654 16.0607 105.238 16.168 104.762 16.168C103.829 16.168 103.134 15.874 102.676 15.286C102.228 14.698 102.004 13.7787 102.004 12.528C102.004 11.3333 102.284 10.428 102.844 9.812C103.414 9.18666 104.193 8.874 105.182 8.874C105.528 8.874 105.798 8.89266 105.994 8.93C106.2 8.96733 106.419 9.028 106.652 9.112V6.2H107.772V13.592ZM104.944 15.188C105.42 15.188 105.798 15.0667 106.078 14.824C106.358 14.572 106.55 14.194 106.652 13.69V10.218C106.484 10.0873 106.293 9.994 106.078 9.938C105.864 9.882 105.579 9.854 105.224 9.854C104.58 9.854 104.076 10.0687 103.712 10.498C103.348 10.918 103.166 11.5947 103.166 12.528C103.166 12.9107 103.194 13.2653 103.25 13.592C103.316 13.9187 103.418 14.1987 103.558 14.432C103.698 14.6653 103.88 14.852 104.104 14.992C104.338 15.1227 104.618 15.188 104.944 15.188Z" fill="#0066FF"/>
<path d="M111.176 14.278C111.176 14.6047 111.232 14.838 111.344 14.978C111.456 15.118 111.614 15.188 111.82 15.188C111.941 15.188 112.072 15.1787 112.212 15.16C112.352 15.1413 112.51 15.0993 112.688 15.034L112.814 15.916C112.664 15.9907 112.454 16.0513 112.184 16.098C111.922 16.1447 111.694 16.168 111.498 16.168C111.078 16.168 110.732 16.0513 110.462 15.818C110.191 15.5753 110.056 15.1693 110.056 14.6V6.2H111.176V14.278Z" fill="#0066FF"/>
<path d="M116.075 13.536L116.467 14.88H116.537L116.845 13.522L118.203 9H119.337L117.265 15.286C117.107 15.7433 116.948 16.1867 116.789 16.616C116.64 17.0453 116.472 17.428 116.285 17.764C116.099 18.1 115.889 18.366 115.655 18.562C115.422 18.7673 115.151 18.87 114.843 18.87C114.507 18.87 114.232 18.8233 114.017 18.73L114.213 17.764C114.335 17.8107 114.451 17.834 114.563 17.834C114.825 17.834 115.077 17.694 115.319 17.414C115.562 17.1433 115.763 16.672 115.921 16L113.107 9H114.395L116.075 13.536Z" fill="#0066FF"/>
<path d="M12.3209 0H1.62103C0.7296 0 0 0.728914 0 1.62103V22.3783C0 23.2704 0.7296 24 1.62103 24H12.3209C13.2123 24 13.9419 23.2718 13.9419 22.379V1.62103C13.9419 0.728914 13.2123 0 12.3209 0ZM5.25943 1.16846H8.68252C8.79086 1.16846 8.87863 1.25623 8.87863 1.36526C8.87863 1.4736 8.79086 1.56137 8.68252 1.56137H5.25943C5.15109 1.56137 5.06331 1.4736 5.06331 1.36526C5.06331 1.25623 5.15109 1.16846 5.25943 1.16846ZM6.97097 23.1895C6.5232 23.1895 6.16046 22.8267 6.16046 22.3783C6.16046 21.9298 6.5232 21.5678 6.97097 21.5678C7.41874 21.5678 7.78149 21.9298 7.78149 22.3783C7.78149 22.8267 7.41874 23.1895 6.97097 23.1895ZM12.8139 21H1.128V2.57074H12.8139V21Z" fill="#0066FF"/>
</svg>
