<svg width="26" height="25" viewBox="0 0 26 25" fill="none" xmlns="http://www.w3.org/2000/svg">
<path d="M16.3365 8.66896L16.4541 8.9459L16.7538 8.97175L24.7801 9.66387L18.6963 14.944L18.4689 15.1413L18.5369 15.4345L20.3562 23.2808L13.4584 19.1175L13.2 18.9616L12.9416 19.1175L6.04573 23.2796L7.87572 15.4352L7.94428 15.1413L7.71618 14.9437L1.62308 9.66523L9.64546 8.98461L9.94589 8.95912L10.0636 8.68151L13.2003 1.28048L16.3365 8.66896ZM12.7 17.152V17.4339L12.9412 17.5798L17.7668 20.4982L18.7825 21.1125L18.5125 19.9566L17.3011 14.772L21.3228 11.2833L22.2148 10.5095L21.0384 10.4075L15.7319 9.94709L13.6604 5.05311L12.7 5.248V17.152Z" fill="#FFB600" stroke="#FFB600"/>
</svg>
